<?xml version="1.0" standalone="no"?>
<!DOCTYPE svg PUBLIC "-//W3C//DTD SVG 20010904//EN"
 "http://www.w3.org/TR/2001/REC-SVG-20010904/DTD/svg10.dtd">
<svg version="1.0" xmlns="http://www.w3.org/2000/svg"
 width="940.000000pt" height="940.000000pt" viewBox="0 0 940.000000 940.000000"
 preserveAspectRatio="xMidYMid meet">
<metadata>
Created by potrace 1.14, written by Peter Selinger 2001-2017
</metadata>
<g transform="translate(0.000000,940.000000) scale(0.100000,-0.100000)"
fill="#000000" stroke="none">
<path d="M4775 8980 l-40 -18 61 5 c34 3 69 1 78 -4 12 -7 -4 -10 -56 -11 -94
-3 -97 -3 -142 -30 -47 -28 -43 -38 7 -17 44 18 136 19 232 1 48 -8 101 -29
170 -65 113 -60 122 -66 80 -57 l-30 6 26 -15 c14 -8 33 -25 42 -39 9 -13 39
-39 67 -57 27 -18 48 -34 47 -36 -7 -6 -97 38 -115 56 -21 22 -128 81 -147 81
-28 0 -25 -20 7 -37 18 -10 38 -18 44 -18 12 0 125 -67 120 -72 -1 -2 -20 6
-42 16 -22 11 -54 22 -70 26 l-29 6 30 -15 c41 -19 27 -20 -26 0 -78 29 -307
80 -419 94 -58 7 -133 22 -335 65 l-60 13 47 1 c26 0 80 -3 120 -9 40 -5 114
-14 165 -20 105 -12 302 -59 400 -96 36 -14 67 -23 69 -22 9 10 -215 98 -250
98 -9 0 -16 4 -16 9 0 10 123 -15 161 -33 14 -7 33 -10 43 -6 12 4 4 10 -31
23 -80 29 -184 47 -270 47 -74 0 -82 2 -76 18 6 16 5 16 -13 1 -16 -14 -33
-15 -119 -7 -55 6 -145 9 -200 9 -58 0 -126 6 -162 15 -35 9 -69 14 -75 11 -7
-2 6 -7 29 -11 56 -10 65 -26 15 -26 -56 0 -207 -28 -250 -46 -20 -8 -70 -24
-109 -35 -40 -10 -109 -39 -154 -64 -45 -25 -89 -45 -98 -45 -9 0 -23 -5 -31
-11 -12 -8 -9 -9 10 -4 21 5 22 4 7 -5 -9 -6 -27 -8 -38 -5 -14 5 -19 3 -15
-4 5 -7 1 -9 -8 -5 -9 3 -16 2 -16 -3 0 -6 -18 -15 -39 -22 -22 -6 -59 -20
-83 -31 -35 -16 -38 -20 -18 -20 34 0 21 -10 -105 -76 -141 -73 -181 -99 -225
-143 -46 -47 -124 -111 -165 -136 -103 -64 -134 -84 -188 -124 -115 -85 -283
-268 -264 -287 3 -3 13 10 24 29 32 54 122 145 203 206 41 30 81 61 88 68 7 7
18 13 24 13 11 0 0 -15 -54 -73 -15 -16 -25 -33 -22 -38 4 -8 -51 -86 -104
-149 -27 -31 2 14 50 78 26 36 46 67 43 70 -7 8 -55 -39 -55 -53 0 -7 -13 -29
-30 -50 -16 -21 -30 -44 -30 -51 0 -7 -6 -19 -13 -26 -31 -30 -90 -127 -128
-207 -23 -47 -61 -128 -86 -178 -24 -51 -51 -116 -59 -145 -31 -115 -64 -248
-63 -260 0 -13 52 154 70 225 5 20 31 77 57 125 26 48 54 99 61 114 8 15 24
38 35 50 24 26 85 109 136 185 19 29 38 53 42 53 4 0 -15 -34 -42 -76 -28 -42
-50 -81 -50 -86 0 -5 -5 -6 -12 -2 -8 5 -9 2 -5 -9 5 -15 -69 -174 -94 -202
-5 -5 -10 -18 -10 -30 -1 -15 -2 -16 -6 -3 -2 9 15 54 39 100 52 101 54 107
35 88 -9 -8 -36 -58 -62 -110 -25 -52 -51 -103 -56 -113 -20 -37 -69 -179 -69
-200 0 -12 -9 -51 -21 -87 -20 -65 -35 -196 -46 -406 -6 -120 7 -241 38 -369
11 -44 24 -96 28 -115 4 -19 29 -89 55 -154 26 -66 51 -140 56 -165 5 -25 25
-82 45 -126 43 -92 70 -180 79 -247 5 -46 5 -48 -30 -64 -50 -24 -89 -77 -116
-158 -19 -60 -23 -91 -22 -201 0 -109 4 -139 22 -185 25 -62 24 -39 -3 80 -19
86 -16 165 14 280 20 81 54 125 118 155 30 15 37 15 56 2 34 -22 148 -137 174
-176 13 -19 23 -28 23 -20 0 9 3 10 8 3 4 -5 22 -16 40 -23 31 -13 82 -63 82
-82 0 -5 15 -41 34 -81 19 -40 35 -82 38 -93 2 -11 10 -20 18 -20 24 0 51 69
67 174 13 84 13 102 2 127 -19 39 -108 86 -165 88 -46 1 -49 3 -35 25 13 20
80 15 112 -8 39 -29 158 -91 175 -91 8 0 61 -15 117 -34 144 -48 240 -76 258
-76 33 0 173 -47 159 -53 -8 -4 0 -6 17 -4 25 3 30 1 22 -9 -8 -9 -5 -11 13
-7 15 3 19 2 11 -4 -9 -6 -2 -13 25 -23 20 -7 46 -15 57 -16 11 -1 23 -3 27
-3 4 -1 41 -71 83 -156 72 -147 79 -157 132 -195 66 -47 155 -77 268 -91 44
-6 105 -16 135 -23 l55 -13 -96 -7 c-163 -14 -141 -28 31 -22 178 7 523 61
580 91 48 25 98 66 194 160 102 100 140 154 161 230 40 142 109 160 221 58 22
-21 51 -53 64 -72 54 -79 207 -232 265 -266 41 -25 172 -48 181 -33 3 4 49 8
102 7 69 -1 90 -4 72 -10 -18 -6 -13 -7 20 -3 25 3 74 10 110 14 76 9 102 18
94 32 -4 6 2 7 16 3 14 -4 20 -3 16 3 -3 5 6 13 22 16 30 7 178 60 230 82 44
19 128 98 157 149 14 22 34 70 45 105 11 36 27 76 35 90 l14 25 1 -30 c1 -16
3 -41 5 -55 1 -14 6 -144 10 -290 10 -348 -1 -449 -92 -885 -18 -87 -60 -226
-79 -263 -7 -15 -14 -37 -14 -49 0 -19 -23 -73 -110 -258 -18 -38 -51 -97 -72
-131 -21 -34 -38 -65 -38 -69 0 -10 -56 -99 -91 -145 -15 -19 -29 -43 -31 -52
-1 -10 -25 -47 -53 -83 -125 -164 -220 -283 -249 -312 -17 -17 -42 -45 -56
-63 -41 -52 -178 -154 -233 -173 -29 -10 -81 -25 -117 -33 -36 -8 -73 -18 -82
-24 -24 -14 -173 -12 -228 3 -47 13 -169 58 -230 85 -65 29 -400 12 -537 -27
-34 -10 -90 -1 -138 23 -167 80 -305 118 -305 82 0 -8 5 -18 10 -21 6 -4 8
-11 4 -16 -6 -10 60 -79 76 -79 4 0 11 -11 14 -25 6 -23 17 -35 95 -109 17
-16 33 -37 36 -47 3 -10 15 -21 27 -24 11 -4 37 -23 58 -43 21 -21 55 -46 76
-57 22 -11 41 -22 44 -25 9 -10 45 -30 70 -40 14 -6 36 -16 49 -23 14 -7 58
-11 105 -11 80 2 94 5 271 69 73 27 176 75 205 95 14 10 88 36 165 58 231 66
332 110 384 166 14 14 30 26 36 26 14 0 85 67 85 80 0 5 10 15 22 21 21 11 21
10 -3 -18 -37 -44 -71 -146 -125 -368 -14 -60 -32 -130 -39 -155 -7 -25 -19
-79 -28 -120 -35 -165 -68 -328 -76 -375 -5 -27 -30 -108 -55 -179 -55 -154
-57 -182 -15 -222 51 -49 70 -106 70 -210 1 -82 -3 -98 -30 -151 -16 -33 -41
-73 -54 -89 -13 -16 -27 -39 -31 -50 -13 -44 -150 -157 -250 -209 l-98 -50
-208 1 -209 1 -38 26 c-21 15 -49 35 -63 44 -34 25 -16 -4 23 -37 17 -14 39
-38 50 -55 13 -21 18 -24 15 -10 -5 20 0 20 246 20 210 0 257 3 287 16 59 27
203 126 235 161 128 143 228 351 249 513 15 118 15 35 1 -161 -15 -195 -33
-292 -62 -325 -8 -8 -14 -18 -14 -21 0 -9 -66 -115 -96 -156 -16 -20 -20 -31
-10 -23 10 8 31 34 47 58 39 56 53 55 29 -3 -11 -25 -20 -50 -20 -55 0 -6 -20
-51 -45 -100 -24 -49 -40 -89 -35 -89 5 0 12 5 16 11 4 8 9 7 15 -2 11 -18 21
-4 48 66 11 28 25 64 32 80 17 42 58 154 70 192 5 17 17 34 26 37 13 5 14 4 3
-8 -14 -18 -22 -226 -9 -226 5 0 9 1 10 3 0 1 2 22 5 47 7 62 194 625 213 640
12 10 41 69 41 85 0 9 4 14 9 10 5 -3 12 -1 16 5 3 5 15 10 25 10 10 0 20 6
23 13 2 6 7 -7 11 -30 4 -24 11 -43 15 -43 4 0 12 26 19 59 7 32 21 66 31 75
10 10 21 27 24 39 5 20 4 19 -18 -5 -28 -32 -40 -36 -25 -9 5 11 7 26 4 35 -3
8 3 32 14 53 27 52 52 141 45 161 -3 11 4 7 19 -9 14 -14 34 -57 46 -95 38
-124 53 -179 56 -199 2 -11 14 -23 27 -26 13 -4 20 -8 14 -9 -19 -3 40 -22 80
-26 22 -2 56 -10 75 -18 73 -30 207 -76 220 -76 32 0 -12 20 -139 63 -96 33
-127 47 -110 50 13 3 -2 5 -33 4 -31 -1 -56 2 -55 6 1 5 -14 14 -33 20 -26 9
-36 19 -38 37 -12 93 -81 288 -137 392 -8 14 -15 33 -15 42 0 9 -25 66 -55
127 -30 61 -52 115 -50 119 3 5 1 10 -4 12 -10 4 -95 133 -128 196 -21 40 -58
93 -113 164 -13 17 -16 29 -10 33 6 4 8 11 4 16 -8 13 16 99 27 99 15 0 100
-94 111 -122 5 -16 14 -28 18 -28 4 0 41 -48 81 -107 39 -59 78 -114 86 -121
7 -8 21 -28 30 -45 9 -18 38 -57 65 -88 26 -30 48 -61 48 -67 0 -6 6 -15 13
-19 7 -4 54 -55 104 -113 91 -105 365 -380 498 -500 39 -35 93 -84 120 -110
28 -26 75 -68 105 -95 30 -27 58 -55 63 -64 4 -9 5 -4 2 13 -3 15 -20 40 -38
55 -17 14 -56 49 -87 78 -30 28 -115 106 -188 173 -167 152 -374 359 -471 470
-41 47 -78 87 -83 88 -5 2 -17 20 -28 40 -10 21 -40 59 -67 87 -63 65 -43 70
83 20 51 -20 99 -35 105 -33 7 2 -16 15 -52 28 -35 13 -68 26 -74 30 -5 4 -32
13 -60 20 -30 8 -58 24 -70 39 -33 41 -89 124 -104 154 -8 15 -34 50 -58 78
-24 28 -43 57 -43 64 0 8 -8 20 -18 27 -9 7 -31 31 -48 52 l-31 39 46 76 c26
42 53 94 60 116 8 22 31 58 51 81 21 23 42 50 48 60 6 10 29 39 52 64 23 25
62 75 87 112 24 36 53 74 64 84 10 9 19 23 19 30 0 7 16 34 36 59 20 26 52 77
71 114 20 36 53 94 75 128 21 34 38 65 38 68 0 4 24 57 54 118 74 152 145 352
167 467 6 36 27 135 45 220 59 277 68 418 52 775 -18 378 -17 412 18 483 29
58 32 88 18 185 l-6 37 -86 1 c-48 1 -125 5 -172 9 -70 7 -53 8 92 6 100 0
178 -5 178 -10 0 -5 3 -6 6 -3 10 10 -26 97 -53 127 -13 15 -30 35 -39 46 -15
19 -15 19 -9 -1 6 -19 5 -19 -16 2 -18 17 -22 32 -21 65 2 41 46 311 77 483 9
45 20 157 26 250 8 130 16 187 34 240 14 41 26 110 30 166 7 90 6 99 -22 170
-17 41 -33 89 -36 108 -6 30 -3 28 34 -28 22 -34 43 -61 45 -61 3 0 3 3 1 8
-2 4 -12 25 -22 47 -10 22 -26 51 -36 64 -11 13 -19 31 -19 39 0 16 -71 142
-98 175 -9 9 -13 20 -9 23 7 7 84 -89 92 -117 4 -11 9 -18 12 -16 7 8 -43 100
-67 122 -12 11 -31 36 -41 57 -10 20 -22 38 -26 40 -20 8 -83 132 -83 162 0
19 -7 50 -15 69 -21 51 -19 56 10 24 14 -15 29 -27 32 -27 7 0 -53 67 -77 86
-40 32 -57 51 -62 70 -5 20 -3 21 31 12 20 -5 56 -21 81 -34 l45 -25 -29 24
c-15 14 -52 33 -81 42 -29 10 -57 25 -62 34 -39 64 -62 114 -57 123 5 7 1 9
-9 5 -13 -5 -21 2 -31 27 -8 18 -26 42 -41 52 -14 11 -52 40 -83 66 -61 51
-176 111 -284 148 -37 13 -66 25 -64 27 2 2 33 -1 70 -8 44 -7 66 -16 66 -25
0 -8 5 -14 10 -14 6 0 10 7 10 15 0 12 5 12 41 0 22 -8 52 -23 67 -33 48 -33
58 -34 20 -1 -20 17 -63 42 -95 55 -64 26 -77 29 -68 14 3 -6 -1 -7 -9 -4 -9
3 -16 10 -16 14 0 12 -201 102 -240 107 -22 2 9 -14 83 -45 65 -28 121 -53
125 -57 17 -19 -111 6 -183 36 -44 18 -109 40 -145 50 l-65 18 74 0 c41 1 72
4 69 7 -14 13 -139 23 -185 15 -92 -18 -79 33 19 70 56 21 80 23 209 24 l147
0 -62 17 c-93 26 -206 33 -276 17 -33 -7 -60 -16 -60 -20 0 -4 -15 -10 -32
-14 -52 -10 -108 -37 -108 -52 0 -19 -6 -17 -56 21 -55 42 -48 46 91 56 l100
7 -80 1 c-44 1 -96 -3 -116 -8 -34 -10 -38 -8 -82 35 -26 25 -54 45 -62 45 -8
0 -15 4 -15 9 0 9 -110 81 -144 94 -10 4 -51 14 -90 22 -39 8 -107 33 -151 55
-89 45 -103 46 -160 20z m18 -157 c-7 -2 -19 -2 -25 0 -7 3 -2 5 12 5 14 0 19
-2 13 -5z m-427 -10 c41 -6 45 -8 24 -13 -16 -5 7 -9 65 -13 149 -11 578 -113
490 -117 -20 -1 1 -9 60 -25 50 -13 101 -28 115 -34 38 -16 -87 -2 -190 21
-135 30 -211 41 -252 35 -21 -3 -36 -2 -33 3 7 11 -91 22 -225 25 -70 1 -136
9 -169 19 -30 9 -91 16 -135 17 -67 1 -76 2 -51 11 39 12 301 12 385 -1 36 -5
143 -24 238 -40 167 -30 274 -41 192 -20 -35 9 -348 67 -471 88 -37 6 -100 11
-140 11 -52 0 -69 3 -59 10 8 5 33 10 55 11 l40 2 -40 7 -40 7 46 2 c25 0 68
-2 95 -6z m-111 -113 l60 -19 -180 0 c-109 0 -172 4 -160 9 11 5 16 9 10 10
-27 6 60 18 130 19 54 0 99 -6 140 -19z m1555 -11 c-47 -10 -89 -17 -95 -15
-19 7 90 35 135 34 40 0 35 -2 -40 -19z m-125 -31 c-11 -6 -37 -28 -57 -50
-35 -37 -58 -46 -61 -23 -1 13 102 85 122 85 12 -1 11 -3 -4 -12z m-1399 -9
c32 -5 104 -21 159 -34 55 -13 109 -26 120 -28 17 -4 -23 -8 -112 -11 -11 -1
-25 -4 -29 -8 -12 -12 57 -9 164 6 53 8 133 17 177 20 l80 5 -66 -18 c-36 -10
-119 -21 -185 -25 -145 -7 -564 9 -618 24 -22 7 -101 13 -177 13 -130 2 -136
3 -91 14 26 7 134 16 240 19 106 4 190 9 188 11 -2 2 -70 7 -152 12 l-149 8
196 2 c107 0 222 -4 255 -10z m421 -25 c-3 -3 -12 -4 -19 -1 -8 3 -5 6 6 6 11
1 17 -2 13 -5z m82 -10 c2 -2 -10 -4 -27 -4 -17 0 -34 4 -37 10 -5 9 53 3 64
-6z m59 -1 c-10 -2 -26 -2 -35 0 -10 3 -2 5 17 5 19 0 27 -2 18 -5z m-1502
-38 c-11 -8 -27 -15 -35 -14 -9 0 -2 7 14 14 39 18 45 18 21 0z m730 -43 c-3
-4 37 -7 87 -5 72 2 83 0 52 -7 -22 -4 -52 -13 -67 -19 -16 -6 -43 -8 -60 -6
-24 4 -28 3 -13 -3 16 -7 12 -10 -20 -15 -22 -4 -49 -7 -60 -7 -16 0 -17 2 -5
10 17 11 -88 3 -135 -10 -42 -12 -187 -22 -155 -11 19 7 11 9 -37 10 -34 1
-64 5 -68 10 -5 10 8 12 165 32 47 5 103 14 125 18 53 11 198 13 191 3z m1070
-27 c-27 -14 -53 -22 -59 -18 -6 3 -7 1 -3 -5 3 -6 -2 -15 -11 -21 -40 -23 8
-9 51 15 25 14 51 22 57 18 8 -5 9 -3 4 6 -6 10 -4 12 8 7 10 -3 17 -2 17 3 0
6 5 10 10 10 19 0 10 -16 -20 -33 -17 -10 -35 -15 -42 -11 -7 4 -8 3 -4 -4 4
-7 -3 -14 -18 -18 -33 -8 -136 -61 -161 -83 -11 -10 -33 -26 -50 -36 -35 -22
-125 -94 -208 -168 -100 -87 -191 -155 -263 -193 -129 -70 -386 -194 -400
-194 -19 0 -73 -28 -92 -47 -15 -15 -152 -86 -152 -79 0 9 116 126 125 126 5
0 -6 -13 -25 -30 -44 -37 -31 -40 15 -3 19 15 30 30 25 33 -11 6 76 110 91
110 6 0 7 -5 4 -11 -20 -31 36 20 66 61 19 26 43 51 54 56 13 6 19 17 17 29
-2 11 -1 17 3 13 4 -3 25 12 47 35 41 43 39 26 -5 -36 -11 -16 -19 -39 -19
-53 0 -13 -3 -22 -7 -20 -3 2 -18 -14 -34 -36 -22 -32 -24 -37 -8 -29 11 6 28
23 39 38 24 36 100 196 109 231 6 26 143 165 153 156 2 -3 0 -8 -6 -12 -19
-13 -96 -164 -90 -178 3 -7 1 -16 -5 -20 -6 -3 -8 -13 -5 -21 4 -9 1 -23 -5
-32 -7 -9 8 6 32 33 24 27 68 72 97 101 28 30 52 57 52 62 0 5 14 22 30 38 40
38 38 26 -5 -30 -21 -28 -32 -52 -29 -63 5 -13 4 -14 -4 -3 -7 9 -12 10 -16 2
-4 -6 -3 -11 3 -11 6 0 -1 -16 -14 -37 -14 -20 -23 -39 -20 -42 7 -6 54 49 55
64 0 6 25 37 56 70 43 47 52 54 44 32 -5 -16 -29 -51 -52 -78 -23 -27 -38 -52
-35 -55 4 -4 9 0 13 9 3 9 12 13 19 11 7 -3 28 7 46 23 19 16 47 35 63 43 39
20 127 103 101 94 -16 -5 -17 -4 -5 5 8 6 21 11 29 11 7 0 35 16 62 36 62 45
277 154 304 153 13 0 2 -9 -29 -24z m599 15 c13 -6 15 -9 5 -9 -8 0 -22 4 -30
9 -18 12 -2 12 25 0z m-339 -25 c-16 -13 -41 -29 -55 -37 -14 -7 -32 -19 -39
-26 -8 -6 -35 -26 -60 -44 -26 -17 -48 -35 -50 -40 -2 -4 -10 -8 -17 -8 -8 0
-42 -23 -77 -51 -35 -28 -77 -57 -95 -65 -17 -7 -33 -17 -35 -21 -1 -5 -30
-28 -62 -53 -32 -25 -68 -53 -80 -63 -20 -17 -20 -17 -1 -11 11 4 27 12 35 19
8 6 27 16 42 23 15 6 44 26 65 45 21 18 54 44 73 57 19 14 41 30 48 37 7 7 33
25 58 39 24 14 44 30 44 35 0 5 7 9 15 9 14 0 93 44 105 59 3 3 14 13 25 21
15 10 13 7 -5 -15 -34 -39 -63 -64 -75 -65 -14 0 -143 -120 -130 -120 6 0 24
13 40 28 36 34 166 115 217 136 21 9 63 16 95 16 l58 -1 -35 -29 c-19 -17 -38
-30 -44 -30 -13 0 -146 -92 -147 -102 -1 -4 -2 -12 -3 -17 -2 -15 -155 -90
-226 -111 -36 -11 -103 -36 -150 -56 -47 -20 -116 -45 -155 -56 -38 -10 -105
-30 -148 -44 -43 -13 -83 -22 -88 -19 -5 4 -9 1 -9 -5 0 -6 -4 -8 -10 -5 -5 3
-10 1 -10 -5 0 -6 -4 -9 -8 -6 -5 3 -21 -2 -36 -10 -16 -7 -36 -14 -45 -14 -9
0 -83 -35 -166 -76 -82 -42 -180 -92 -217 -110 -36 -19 -71 -34 -76 -34 -5 0
-50 -21 -98 -47 -49 -26 -111 -58 -138 -71 -26 -13 -78 -44 -114 -68 -36 -24
-71 -44 -78 -44 -7 0 -14 -4 -16 -9 -3 -8 -88 -67 -159 -109 -28 -16 -37 -18
-33 -7 4 8 12 15 19 15 6 0 24 11 39 25 35 32 112 85 124 85 6 0 12 3 14 8 5
11 146 102 158 102 6 0 34 18 63 39 52 39 162 100 287 161 36 17 115 56 177
86 62 30 117 54 123 54 7 0 50 21 97 48 46 26 95 53 107 59 13 7 51 36 84 65
227 197 452 352 482 333 6 -3 10 -2 10 2 0 11 54 43 72 43 7 -1 1 -7 -14 -15
-19 -11 -25 -20 -21 -35 5 -19 9 -17 43 21 26 29 42 40 54 36 18 -7 35 0 111
43 61 35 80 37 41 5z m534 -22 c3 -3 -4 -3 -15 0 -11 3 -33 9 -50 12 -62 14
-68 17 -55 25 12 7 106 -22 120 -37z m-1280 21 c-42 -14 -91 -20 -183 -23 -25
-1 -36 -5 -31 -12 4 -6 -1 -10 -12 -8 -11 1 -28 -2 -39 -6 -183 -74 -240 -95
-260 -95 -14 0 -25 -3 -25 -7 0 -5 -52 -9 -115 -10 -64 0 -121 -5 -128 -11
-18 -14 -105 -41 -111 -34 -3 3 -6 0 -6 -6 0 -15 -56 -44 -92 -46 -15 -1 -28
-1 -28 1 0 6 197 100 225 107 16 4 66 25 112 47 45 21 89 39 97 39 8 0 17 4
20 9 3 4 25 11 48 14 24 4 68 14 98 23 38 11 112 19 235 24 266 10 247 10 195
-6z m-1090 -34 c-24 -15 -36 -11 -14 4 10 8 21 12 24 10 2 -3 -2 -9 -10 -14z
m1720 5 c-7 -8 -17 -15 -23 -15 -6 0 -2 7 9 15 25 19 30 19 14 0z m-1370 -5
c0 -5 -9 -10 -20 -10 -11 0 -20 5 -20 10 0 6 9 10 20 10 11 0 20 -4 20 -10z
m47 4 c-3 -3 -12 -4 -19 -1 -8 3 -5 6 6 6 11 1 17 -2 13 -5z m-519 -68 c-28
-22 -58 -45 -66 -51 -8 -5 -23 -16 -31 -22 -9 -7 -25 -19 -36 -27 -11 -8 -17
-17 -13 -21 4 -4 26 8 50 28 60 48 121 85 155 93 24 5 22 2 -17 -25 -25 -17
-49 -31 -55 -31 -5 0 -21 -12 -34 -25 -13 -14 -29 -25 -35 -25 -7 0 -31 -16
-53 -35 -23 -19 -45 -35 -50 -35 -4 1 3 10 16 21 37 30 18 34 -28 5 -22 -14
-43 -26 -46 -26 -9 0 -247 -240 -301 -303 -52 -62 -68 -92 -57 -109 3 -6 2 -8
-4 -5 -12 8 -68 -68 -131 -178 -57 -99 -68 -83 -14 22 22 43 55 108 73 146 19
37 44 79 57 94 12 14 22 32 22 39 0 15 101 136 149 179 19 16 55 49 81 73 26
23 51 42 56 42 5 0 20 10 34 23 54 49 130 98 141 91 7 -4 9 -3 6 3 -6 10 113
93 134 93 5 0 9 4 9 9 0 5 9 7 20 4 16 -4 11 -11 -32 -47z m548 39 c-22 -8
-56 -17 -77 -20 -21 -4 -75 -20 -121 -36 -46 -17 -94 -33 -108 -36 -37 -8
-109 -42 -158 -75 -23 -16 -59 -36 -79 -45 -21 -8 -72 -38 -115 -65 -46 -30
-85 -48 -94 -44 -8 3 -12 2 -9 -4 3 -6 2 -10 -3 -10 -4 0 -17 -8 -28 -18 -10
-9 -39 -33 -64 -52 -25 -19 -67 -54 -94 -77 -51 -45 -89 -61 -42 -18 15 14 24
25 20 25 -4 0 0 6 11 13 12 9 15 19 10 28 -5 8 -5 11 0 7 10 -9 38 19 31 31
-3 5 2 15 12 22 16 13 16 13 2 -5 -9 -12 -10 -17 -2 -12 15 9 43 62 36 69 -3
3 0 8 7 13 8 4 10 3 5 -4 -15 -25 20 -10 54 22 19 19 69 54 110 77 41 23 97
57 124 76 27 18 60 36 75 40 14 3 35 12 46 19 66 42 203 74 323 75 48 0 96 4
107 9 11 5 29 9 40 9 11 0 2 -6 -19 -14z m708 -7 c-8 -18 -64 -62 -64 -50 0 9
56 62 65 62 3 0 2 -6 -1 -12z m22 -29 c-19 -23 -33 -46 -30 -50 3 -5 -1 -9 -9
-9 -8 0 -20 -7 -27 -15 -7 -9 -15 -13 -18 -10 -5 5 107 125 116 125 2 0 -12
-19 -32 -41z m893 -10 c-18 -22 -38 -43 -46 -46 -8 -3 -21 -20 -30 -37 l-16
-31 44 39 c24 21 52 48 61 60 10 11 18 16 18 11 0 -16 -136 -149 -200 -195
-30 -22 -72 -46 -92 -52 -21 -6 -38 -15 -38 -20 0 -4 -8 -8 -17 -8 -10 0 -36
-7 -58 -14 -22 -8 -50 -12 -61 -10 -12 3 -25 1 -28 -5 -4 -6 -18 -11 -31 -11
-12 0 -25 -7 -29 -15 -3 -8 -11 -15 -18 -15 -9 0 -8 3 2 10 34 22 -6 8 -61
-21 -35 -19 -67 -29 -79 -26 -13 3 -20 0 -20 -9 0 -8 -4 -14 -10 -14 -5 0 -10
6 -10 14 0 16 193 107 257 121 18 3 35 11 39 16 6 11 171 89 187 89 21 0 145
93 201 150 32 33 61 60 63 60 3 0 -10 -18 -28 -41z m-1205 14 c3 -4 -6 -12
-21 -19 -20 -9 -23 -13 -10 -13 10 -1 28 4 39 10 25 14 83 31 75 22 -8 -7
-111 -51 -148 -63 -30 -9 -142 -78 -147 -90 -2 -4 -11 -6 -21 -3 -11 3 -21 -2
-24 -11 -4 -9 -15 -16 -24 -16 -18 0 -53 -32 -53 -49 0 -10 -65 -61 -78 -61
-5 0 -17 -8 -26 -19 -19 -21 -225 -164 -290 -201 -72 -41 -150 -88 -161 -97
-5 -4 -23 -9 -39 -11 -28 -3 -27 -2 18 33 45 34 94 64 191 116 46 25 101 69
86 69 -5 0 -16 -6 -23 -14 -8 -8 -37 -26 -64 -40 -27 -15 -72 -41 -101 -59
-87 -54 -180 -107 -187 -107 -4 0 -4 5 -1 10 9 15 -42 -9 -100 -47 -53 -34
-335 -302 -335 -319 0 -5 -24 -36 -53 -69 -30 -33 -59 -70 -66 -83 -7 -12 -17
-20 -23 -16 -6 4 -8 3 -5 -2 3 -6 -9 -24 -27 -41 -18 -18 -38 -45 -46 -60 -21
-42 -41 -63 -53 -56 -6 3 -7 1 -3 -5 4 -7 -4 -27 -17 -44 -13 -18 -27 -41 -30
-51 -4 -10 -11 -15 -17 -12 -5 3 -10 1 -10 -6 0 -7 -2 -10 -5 -7 -3 3 -1 16 4
29 5 13 10 17 10 9 1 -8 12 8 25 36 13 29 30 56 38 60 7 5 24 32 37 59 14 28
27 52 30 55 8 7 53 67 85 115 31 45 129 164 194 233 23 25 40 47 38 49 -2 3
-20 -13 -39 -34 -20 -21 -39 -35 -42 -31 -4 4 13 30 39 59 25 28 43 56 39 62
-3 5 -2 7 4 4 5 -3 19 7 31 22 21 29 186 158 232 181 31 15 21 6 -53 -54 -32
-25 -61 -46 -66 -46 -14 0 -112 -96 -105 -103 13 -12 22 -8 56 27 18 18 49 44
68 57 19 13 61 43 92 66 31 23 71 51 90 61 18 11 57 34 86 51 29 18 89 48 133
66 44 19 101 47 127 64 26 16 60 35 75 40 28 11 104 60 138 90 10 7 35 20 56
27 46 17 46 17 37 3 -3 -6 8 -3 25 5 17 9 31 19 31 22 0 2 -9 0 -21 -6 -17
-10 -41 -7 -28 3 23 18 141 87 148 87 5 0 44 15 88 34 88 39 87 39 97 29z
m1672 -14 c38 -12 74 -25 81 -31 6 -5 17 -8 25 -7 26 3 39 -1 33 -11 -3 -5 -2
-10 2 -10 5 0 18 -7 29 -15 11 -10 2 -8 -23 5 -23 11 -49 20 -57 20 -13 0
-166 58 -175 66 -10 9 21 3 85 -17z m-204 -31 c68 -63 69 -83 12 -201 l-33
-68 65 46 c77 55 87 46 12 -10 -29 -22 -64 -53 -78 -70 -50 -58 -239 -241
-262 -253 -87 -43 -222 -103 -245 -108 l-28 -6 22 16 c12 9 56 34 98 55 41 22
100 60 129 85 30 25 59 46 64 46 6 0 12 4 14 9 2 5 29 37 61 70 31 34 57 65
57 69 0 4 22 31 49 59 47 51 91 148 91 200 0 11 -18 36 -41 56 -22 21 -36 37
-31 37 5 0 25 -15 44 -32z m-1472 -12 c0 -2 -20 -16 -45 -30 -25 -13 -43 -21
-40 -15 4 5 23 18 43 29 41 21 42 22 42 16z m1891 -26 l24 -21 -35 17 c-43 21
-47 24 -28 24 9 0 26 -9 39 -20z m-2213 5 c-12 -12 -146 -78 -188 -92 -41 -14
-56 -18 -98 -22 -7 0 -10 -5 -7 -11 4 -6 -1 -7 -11 -3 -13 5 -15 3 -9 -7 5 -9
4 -11 -4 -6 -15 10 -43 -13 -34 -27 3 -5 1 -7 -5 -4 -15 10 -43 -3 -35 -16 4
-6 0 -8 -10 -4 -8 3 -17 0 -20 -6 -2 -7 -22 -18 -43 -26 -22 -7 -66 -30 -99
-51 -33 -20 -71 -41 -85 -45 -14 -4 -32 -13 -40 -20 -8 -6 -34 -23 -57 -35
-24 -13 -43 -27 -43 -30 0 -7 -45 -30 -58 -30 -14 0 92 92 128 110 20 10 51
33 70 50 18 17 54 40 79 51 25 11 85 40 133 64 72 38 194 85 393 153 34 12 51
14 43 7z m662 -18 c0 -2 -21 -18 -47 -35 -27 -17 -64 -47 -82 -66 -19 -20 -40
-36 -45 -36 -17 0 82 90 127 116 44 25 47 26 47 21z m725 -5 c-31 -27 -126
-82 -141 -82 -26 0 -10 12 71 54 71 36 87 43 70 28z m899 -52 c35 -22 68 -39
73 -38 4 2 9 -1 10 -5 1 -5 19 -28 41 -51 22 -24 47 -58 56 -77 9 -19 27 -46
41 -61 29 -32 50 -78 35 -78 -6 0 -10 4 -10 9 0 15 -64 50 -86 47 -10 -2 -13
-1 -6 1 21 8 13 18 -43 51 -30 18 -55 37 -55 42 0 5 -10 12 -22 16 -32 10 -89
55 -83 65 7 10 -8 23 -60 54 -50 30 -35 31 22 2 80 -41 212 -138 253 -185 l42
-47 -25 50 c-27 54 -128 156 -192 195 -41 25 -71 50 -60 50 3 0 34 -18 69 -40z
m-714 -3 c-32 -29 -250 -137 -275 -137 -15 1 -12 5 12 18 18 9 61 34 94 55 34
20 69 37 78 37 9 1 36 12 61 25 57 30 61 31 30 2z m-2640 -19 c-25 -11 -47
-24 -50 -28 -3 -3 -39 -29 -80 -57 -41 -28 -96 -72 -123 -97 -26 -25 -51 -46
-56 -46 -5 0 -27 -21 -50 -47 -23 -27 -47 -52 -52 -58 -5 -5 -27 -30 -47 -55
-38 -45 -66 -63 -56 -35 4 8 11 12 16 9 6 -4 8 2 3 15 -5 18 3 31 41 67 26 24
51 44 56 44 4 0 8 6 8 13 0 8 24 34 53 58 28 24 60 54 70 66 10 12 28 25 40
29 12 3 62 33 111 66 93 62 121 77 146 77 8 -1 -5 -10 -30 -21z m605 -8 c3 -6
-1 -7 -9 -4 -18 7 -21 14 -7 14 6 0 13 -4 16 -10z m-25 -20 c-8 -5 -19 -10
-25 -10 -5 0 -3 5 5 10 8 5 20 10 25 10 6 0 3 -5 -5 -10z m605 -18 c-3 -3 -11
0 -18 7 -9 10 -8 11 6 5 10 -3 15 -9 12 -12z m220 8 c4 -6 1 -9 -6 -8 -6 2
-14 -3 -17 -11 -3 -8 0 -11 7 -7 21 13 11 -10 -19 -44 -16 -18 -30 -29 -30
-23 0 5 9 18 20 28 24 22 27 43 3 24 -11 -9 -10 -3 6 19 25 35 27 37 36 22z
m-266 -34 c-27 -25 -69 -50 -69 -41 0 6 80 65 89 65 3 0 -6 -11 -20 -24z
m1586 -70 c-12 -39 -28 -66 -56 -93 -21 -20 -39 -43 -39 -49 0 -7 -21 -30 -47
-51 -27 -21 -60 -50 -75 -64 -14 -14 -41 -32 -60 -40 -18 -7 -64 -35 -101 -61
-38 -26 -83 -50 -100 -53 -44 -9 -247 -84 -275 -102 -39 -24 -18 -25 39 -2 30
11 65 25 79 30 25 9 25 9 -3 -12 -15 -11 -25 -25 -21 -30 3 -5 -3 -9 -14 -9
-20 0 -77 -38 -125 -84 -15 -14 -31 -26 -35 -26 -4 0 -31 -25 -61 -55 -30 -30
-59 -55 -64 -55 -5 0 -21 -12 -36 -27 -37 -38 -61 -56 -113 -87 -49 -29 -66
-33 -49 -13 6 8 8 17 4 21 -4 4 0 4 9 1 11 -5 34 10 72 46 30 29 54 55 51 58
-7 13 42 80 85 116 25 21 47 40 50 44 3 4 21 17 40 30 32 21 29 22 -17 4 -13
-4 -11 2 8 23 14 16 50 63 81 104 66 89 140 165 223 227 33 25 78 60 100 79
92 77 144 114 138 96 -5 -13 -1 -12 16 6 26 26 36 29 22 5 -24 -42 -50 -63
-68 -57 -11 4 -14 3 -6 -3 8 -5 -7 -25 -47 -61 -58 -52 -85 -68 -59 -35 8 10
-7 0 -33 -20 -25 -21 -53 -49 -62 -62 -9 -13 -36 -38 -62 -55 -25 -18 -43 -34
-40 -37 2 -3 20 7 39 21 19 14 37 26 42 26 4 0 28 17 53 37 31 25 44 31 39 19
-7 -18 -6 -18 20 -1 16 10 34 27 42 38 8 11 21 17 32 14 10 -3 17 -2 16 2 -1
3 23 29 53 56 92 84 109 93 34 17 -40 -40 -68 -72 -64 -72 5 0 15 6 22 13 7 7
47 40 88 73 41 34 88 77 104 95 18 21 30 29 33 21 3 -6 10 -9 15 -6 7 5 8 2 3
-6 -15 -24 -17 -82 -3 -78 17 6 64 91 80 143 9 31 13 35 15 18 2 -11 -3 -46
-12 -77z m-1575 50 c0 -2 -8 -10 -17 -17 -16 -13 -17 -12 -4 4 13 16 21 21 21
13z m-1276 -48 c-21 -24 -43 -42 -49 -41 -6 2 -31 -21 -55 -50 -25 -28 -58
-65 -75 -80 -73 -70 -85 -83 -85 -94 0 -6 -10 -20 -22 -30 -55 -44 -111 -166
-165 -360 -18 -65 -31 -97 -36 -88 -4 8 -4 22 1 32 11 20 32 86 32 97 0 4 -5
4 -12 0 -7 -4 -8 -3 -4 5 4 6 12 8 18 5 7 -5 9 -1 5 9 -4 10 9 49 30 92 19 42
33 78 30 82 -3 3 -26 -37 -51 -88 -25 -52 -45 -85 -46 -75 0 26 22 86 32 86 4
0 5 7 2 15 -4 8 -1 15 5 15 6 0 11 6 11 13 0 6 14 30 30 51 17 22 30 44 30 50
0 21 174 204 288 302 23 20 42 31 42 24 0 -7 10 0 22 16 21 27 48 53 57 54 2
0 -14 -19 -35 -42z m1284 -15 c-11 -18 -22 -33 -25 -33 -2 0 -1 6 3 13 4 7 3
9 -2 4 -5 -5 -9 -12 -10 -15 -2 -19 -17 -41 -24 -37 -4 3 -20 -12 -36 -33 -16
-20 -45 -55 -65 -77 -20 -22 -49 -55 -64 -73 -15 -18 -45 -42 -66 -53 -22 -11
-39 -22 -39 -25 0 -3 6 -2 13 2 6 4 -1 -7 -18 -25 -16 -18 -39 -37 -50 -43
-13 -6 -10 1 10 20 17 16 31 35 33 43 3 13 34 49 87 104 11 11 33 38 50 60 46
62 189 202 207 202 13 0 12 -5 -4 -34z m-74 19 c3 -5 -1 -9 -9 -9 -8 0 -12 4
-9 9 3 4 7 8 9 8 2 0 6 -4 9 -8z m-414 -7 c0 -2 -10 -9 -22 -15 -22 -11 -22
-10 -4 4 21 17 26 19 26 11z m2536 -37 c-3 -18 -13 -46 -21 -62 -22 -42 -12
-42 19 1 16 21 26 33 24 26 -7 -25 -81 -119 -102 -129 -11 -6 -55 -30 -96 -53
-41 -23 -88 -45 -105 -48 -16 -4 -82 -26 -146 -49 -64 -23 -148 -49 -185 -57
-92 -20 -159 -50 -203 -92 -19 -19 -39 -35 -44 -35 -5 0 -37 -25 -70 -55 -34
-30 -70 -55 -79 -55 -10 0 -18 -4 -18 -9 0 -8 -173 -101 -189 -101 -5 0 -52
-25 -105 -56 -53 -31 -100 -53 -104 -49 -4 4 1 12 11 19 10 6 41 28 69 49 27
20 59 37 69 37 10 0 19 5 19 11 0 5 4 8 8 5 4 -2 14 0 22 6 12 8 12 9 -2 4
-10 -3 -18 -2 -18 3 0 7 25 22 154 94 28 16 60 37 71 47 11 10 40 29 65 41 25
13 76 45 113 72 38 26 80 52 93 57 84 32 253 181 293 258 7 13 15 21 18 19 8
-9 -45 -96 -75 -123 -27 -25 -27 -25 -2 -13 21 10 47 35 147 141 26 28 42 -7
21 -46 -11 -20 -11 -20 18 -2 47 30 73 57 101 105 33 59 30 56 47 42 18 -15
12 -33 -33 -94 -35 -47 -128 -126 -186 -159 l-30 -17 32 -1 c17 0 38 6 45 13
7 7 16 14 20 15 27 8 38 16 38 27 0 7 15 28 33 47 17 19 45 50 60 68 21 23 32
29 40 21 13 -13 -35 -68 -73 -83 -20 -8 -22 -11 -10 -20 13 -8 12 -9 -2 -5
-18 6 -45 -19 -33 -31 4 -4 10 -1 12 6 3 6 13 12 24 12 67 0 221 135 234 204
3 21 9 36 12 32 3 -3 3 -20 -1 -38z m-2145 4 c-5 -10 -18 -25 -27 -33 -12 -9
-15 -9 -10 -1 4 6 3 12 -3 12 -5 0 -12 -6 -14 -12 -4 -10 -6 -10 -6 0 -1 17
36 52 54 52 12 0 13 -4 6 -18z m1075 -7 c-11 -8 -27 -15 -35 -15 -13 1 -12 4
3 15 11 8 27 15 35 15 13 -1 12 -4 -3 -15z m-1542 -10 c-10 -8 -23 -15 -28
-15 -6 0 -1 7 10 15 10 8 23 15 28 15 6 0 1 -7 -10 -15z m2276 2 c0 -2 -18
-28 -40 -57 -36 -49 -40 -51 -40 -27 0 14 6 31 13 37 47 40 67 53 67 47z m604
-17 c4 -4 -2 -11 -14 -15 -12 -4 -24 -4 -27 -1 -4 3 2 6 13 6 16 1 15 3 -6 16
l-25 15 25 -7 c14 -3 29 -10 34 -14z m-3661 -19 c-11 -11 -30 -35 -42 -55 -13
-20 -27 -33 -33 -30 -6 4 -8 3 -5 -3 4 -6 -2 -29 -13 -51 -11 -23 -20 -46 -20
-52 0 -6 -4 -9 -9 -5 -6 3 -9 -3 -9 -12 1 -16 -27 -81 -89 -210 -9 -18 -20
-33 -25 -33 -4 0 -8 -5 -8 -11 0 -7 -13 -34 -30 -61 -16 -26 -30 -55 -30 -63
0 -9 -11 -33 -25 -55 -23 -36 -75 -156 -88 -205 -3 -11 -3 5 0 35 3 37 22 91
58 165 28 61 55 122 58 136 4 14 24 48 45 75 52 65 67 95 54 103 -7 4 -8 12
-2 21 9 13 10 13 10 0 1 -8 10 3 22 25 11 22 28 49 37 60 15 19 15 19 -2 6
-10 -8 -25 -28 -34 -45 -9 -17 -18 -26 -20 -20 -6 17 73 161 115 214 45 55 94
101 101 95 2 -3 -5 -14 -16 -24z m2458 22 c-8 -3 -9 -8 -3 -12 11 -6 -92 -121
-109 -121 -13 0 -149 -136 -204 -205 -27 -33 -52 -62 -55 -65 -4 -3 -21 -25
-39 -50 -38 -53 -279 -300 -293 -300 -6 0 5 14 23 31 30 28 31 31 10 24 -18
-5 -22 -4 -15 6 6 12 5 12 -8 1 -28 -23 -29 4 -1 54 15 27 31 51 35 52 4 2 8
11 8 20 0 19 18 50 109 186 34 53 67 96 72 96 5 0 9 6 9 13 0 8 7 14 15 14 12
0 12 -3 2 -16 -6 -8 -19 -24 -27 -35 -8 -10 -23 -27 -32 -37 -9 -10 -25 -33
-34 -51 -9 -18 -32 -54 -51 -80 -19 -27 -32 -48 -29 -48 13 0 68 67 87 107 11
22 30 49 42 60 l21 18 -17 -25 c-48 -71 -46 -80 7 -25 31 31 56 59 56 63 0 4
45 51 100 105 64 63 104 96 112 91 7 -4 9 -3 5 1 -4 5 3 15 15 23 13 7 15 11
6 8 -40 -12 -18 11 62 65 l45 30 -42 -39 c-24 -22 -43 -43 -43 -47 0 -9 63 36
73 52 4 7 16 13 26 13 10 0 24 7 31 15 7 8 20 15 29 14 12 0 12 -2 2 -6z
m-1111 -7 c0 -3 -4 -8 -10 -11 -5 -3 -10 -1 -10 4 0 6 5 11 10 11 6 0 10 -2
10 -4z m-1144 -28 c4 -6 3 -8 -4 -4 -6 3 -22 -8 -36 -26 -14 -18 -26 -29 -26
-24 0 9 49 66 56 66 2 0 6 -5 10 -12z m83 -44 c-114 -118 -291 -289 -301 -293
-22 -8 98 134 185 217 21 20 57 55 79 77 22 23 50 42 61 42 16 2 12 -7 -24
-43z m3361 14 c55 -18 158 -99 183 -144 7 -12 20 -36 30 -54 29 -50 1 -25 -42
38 -51 76 -114 130 -159 138 -21 4 -52 15 -69 26 -35 21 -45 35 -15 23 9 -5
42 -16 72 -27z m-3180 18 c0 -11 -102 -77 -108 -71 -4 4 -2 10 4 12 7 2 29 17
50 33 36 27 54 36 54 26z m-70 -21 c-7 -8 -17 -15 -23 -15 -6 0 -2 7 9 15 25
19 30 19 14 0z m866 -13 c-17 -16 -18 -16 -5 5 7 12 15 20 18 17 3 -2 -3 -12
-13 -22z m2547 -45 c27 -31 12 -33 -23 -3 -17 14 -36 26 -41 26 -5 0 -9 4 -9
10 0 14 51 -9 73 -33z m-3673 19 c0 -2 -8 -10 -17 -17 -16 -13 -17 -12 -4 4
13 16 21 21 21 13z m1100 -11 c-7 -9 -15 -13 -17 -11 -7 7 7 26 19 26 6 0 6
-6 -2 -15z m-1171 -35 c-18 -22 -35 -38 -37 -35 -5 5 57 75 65 75 2 0 -11 -18
-28 -40z m1001 36 c0 -2 -8 -10 -17 -17 -16 -13 -17 -12 -4 4 13 16 21 21 21
13z m-680 -31 c-7 -8 -17 -15 -22 -15 -6 0 -5 7 2 15 7 8 17 15 22 15 6 0 5
-7 -2 -15z m565 -5 c-10 -11 -22 -20 -28 -20 -5 0 1 9 14 20 31 25 37 25 14 0z
m2722 -50 c4 0 1 5 -7 10 -11 7 -12 10 -2 10 8 0 16 -9 19 -20 5 -18 15 -25
36 -21 5 1 6 -2 4 -6 -3 -5 19 -26 49 -48 29 -22 53 -46 54 -53 0 -7 10 -17
23 -23 19 -8 17 -9 -11 -4 -20 3 -31 1 -27 -5 7 -12 3 -12 -19 -4 -9 3 -14 10
-11 14 3 4 -1 10 -8 13 -29 11 -12 -23 17 -34 17 -7 33 -16 36 -19 3 -3 21
-16 41 -28 59 -36 71 -60 14 -27 -66 38 -127 68 -141 68 -6 0 -11 6 -11 14 0
7 5 13 11 13 6 0 3 5 -7 11 -9 6 -14 15 -11 21 4 6 3 8 -4 4 -5 -3 -12 -3 -14
1 -4 11 -85 73 -94 73 -9 0 -33 32 -33 45 0 6 5 3 12 -6 16 -22 127 -82 127
-69 0 5 -14 17 -31 25 -36 19 -109 83 -109 97 0 5 20 -5 44 -22 25 -16 48 -30
53 -30z m222 -8 c5 -18 8 -32 6 -32 -5 0 -45 80 -45 89 0 16 32 -30 39 -57z
m-3619 45 c0 -2 -15 -16 -32 -33 l-33 -29 29 33 c28 30 36 37 36 29z m2140 0
c0 -2 -12 -14 -27 -28 l-28 -24 24 28 c23 25 31 32 31 24z m1430 -17 c6 -11 8
-20 6 -20 -3 0 -10 9 -16 20 -6 11 -8 20 -6 20 3 0 10 -9 16 -20z m-3491 7
c-2 -1 -13 -9 -24 -17 -19 -14 -19 -14 -6 3 7 9 18 17 24 17 6 0 8 -1 6 -3z
m531 -37 c-19 -16 -39 -30 -45 -30 -12 0 57 59 70 60 6 0 -6 -14 -25 -30z
m920 -1 c-6 -11 -19 -23 -28 -26 -9 -3 -38 -28 -65 -55 -26 -26 -52 -48 -58
-48 -5 0 -7 -4 -4 -10 3 -5 1 -10 -4 -10 -6 0 -26 -16 -44 -35 -18 -19 -47
-45 -63 -57 -17 -13 -55 -45 -85 -72 -38 -34 -47 -47 -30 -41 17 5 21 4 16 -5
-6 -9 -3 -9 14 -1 25 14 28 23 4 14 -24 -8 -15 1 48 47 29 22 59 40 66 40 7 0
13 4 13 8 0 5 12 14 27 21 45 21 9 -14 -63 -61 -68 -43 -83 -59 -34 -33 38 20
60 20 40 1 -28 -26 -272 -151 -317 -162 -15 -4 -32 -10 -38 -14 -21 -17 -154
-80 -201 -96 -59 -20 -308 -144 -312 -155 -3 -8 -133 -50 -243 -79 -32 -8 -61
-26 -93 -58 -43 -43 -46 -44 -36 -17 14 36 30 56 40 50 4 -3 7 2 6 11 -1 12
22 22 84 40 153 44 255 76 260 83 13 16 153 102 222 135 42 21 85 47 95 58 13
14 -2 9 -52 -17 -38 -21 -63 -31 -55 -22 8 8 58 37 110 64 52 27 111 64 130
81 19 18 47 38 63 45 15 6 27 15 27 18 0 7 90 77 155 121 22 15 55 40 72 57
18 16 43 33 55 37 13 4 39 19 58 35 19 15 52 35 72 43 20 9 39 20 43 26 3 5
14 10 23 10 10 0 33 11 52 25 43 30 43 30 30 4z m-64 -4 c-11 -8 -25 -15 -30
-15 -6 1 0 7 14 15 32 19 40 18 16 0z m-1157 -49 c-19 -14 -45 -33 -59 -43
-14 -10 -30 -17 -36 -15 -7 1 -15 -5 -18 -14 -9 -24 40 -10 82 24 19 15 48 35
65 45 18 10 23 12 13 5 -11 -7 -38 -30 -60 -50 -23 -21 -47 -38 -54 -38 -8 0
-26 -9 -40 -21 -84 -65 -145 -109 -152 -109 -4 0 -44 -36 -89 -80 -44 -44 -81
-78 -81 -75 0 8 104 130 122 143 10 7 16 17 13 22 -3 4 5 15 18 23 12 8 40 31
62 52 22 20 52 43 68 51 15 8 27 19 27 24 0 15 -8 12 -43 -11 -25 -17 -24 -14
8 15 22 19 45 35 50 35 6 1 3 -3 -5 -9 -8 -5 -12 -11 -9 -14 3 -3 34 10 70 29
76 40 97 45 48 11z m222 -3 c-32 -45 -113 -130 -102 -108 10 21 109 135 117
135 3 0 -4 -12 -15 -27z m69 23 c0 -2 -8 -10 -17 -17 -16 -13 -17 -12 -4 4 13
16 21 21 21 13z m976 -74 c-25 -38 -46 -74 -46 -79 0 -5 -20 -38 -45 -73 -25
-35 -45 -68 -45 -73 0 -6 13 8 29 31 16 22 34 43 40 46 6 4 19 26 30 49 17 37
111 150 111 133 0 -3 -17 -32 -39 -64 -21 -31 -58 -93 -81 -137 -24 -44 -58
-100 -77 -124 -18 -24 -33 -50 -33 -57 0 -7 -9 -16 -20 -19 -11 -3 -20 -13
-20 -22 0 -10 -6 -13 -16 -9 -12 4 -15 2 -10 -9 3 -9 0 -15 -10 -15 -8 0 -12
-4 -9 -10 3 -6 -4 -9 -19 -8 -13 1 -22 6 -20 10 3 5 10 6 15 3 5 -4 12 2 16
12 4 10 22 37 40 61 36 48 44 73 16 51 -16 -11 -16 -11 -5 1 7 8 18 15 25 15
7 0 11 8 11 18 -1 9 2 17 8 17 5 0 6 5 3 10 -7 11 34 90 46 90 3 0 20 32 35
71 26 65 100 167 111 155 3 -3 -16 -36 -41 -74z m-866 64 c0 -2 -8 -10 -17
-17 -16 -13 -17 -12 -4 4 13 16 21 21 21 13z m2495 -38 c-19 -122 -73 -196
-175 -240 -25 -11 -58 -26 -74 -34 -16 -8 -33 -14 -38 -14 -5 0 -47 -23 -93
-50 -55 -34 -101 -54 -137 -60 -29 -4 -111 -30 -183 -56 -71 -26 -142 -47
-157 -47 -16 0 -28 -5 -28 -12 0 -6 -21 -24 -47 -39 -27 -15 -63 -37 -82 -49
-19 -11 -31 -16 -27 -9 5 8 2 10 -8 6 -9 -3 -16 -10 -16 -14 0 -4 -7 -11 -16
-14 -9 -4 -13 -2 -8 5 4 7 1 10 -7 7 -8 -3 -13 -10 -12 -15 1 -5 -3 -10 -10
-10 -7 0 -49 -21 -94 -47 -45 -27 -88 -46 -95 -44 -7 3 -21 -4 -32 -13 -19
-18 -42 -16 -30 2 3 5 10 7 15 4 5 -4 9 -2 9 4 0 6 26 30 58 53 31 24 59 45
62 49 3 3 25 15 50 27 25 13 59 34 75 48 l30 26 -35 -20 c-113 -65 -146 -86
-193 -120 -73 -54 -77 -56 -77 -38 0 9 6 16 14 16 7 0 26 17 41 38 l28 37 -35
-33 c-19 -18 -37 -30 -40 -27 -3 3 -11 -1 -18 -10 -7 -8 -18 -15 -26 -15 -7 0
-20 -7 -28 -16 -9 -8 -21 -14 -27 -12 -5 2 22 23 60 48 39 25 71 51 71 58 0 7
5 10 10 7 6 -3 10 -2 10 4 0 5 13 8 29 6 18 -2 31 2 35 10 7 20 -5 26 -21 9
-9 -8 -18 -13 -20 -10 -10 10 52 56 69 52 10 -2 22 2 29 10 8 10 8 14 0 14 -6
0 -11 5 -11 11 0 6 7 9 16 7 10 -2 33 11 52 29 67 61 378 213 436 213 6 0 -25
-18 -69 -41 -100 -51 -147 -80 -142 -86 3 -2 34 10 68 27 46 22 57 25 39 10
l-25 -20 30 11 c17 5 59 25 95 43 36 19 85 43 110 55 25 11 92 50 150 86 58
36 110 63 117 60 7 -2 15 1 19 7 4 7 3 8 -4 4 -7 -4 -12 -3 -12 2 0 5 8 12 18
16 9 3 34 17 55 31 20 14 37 21 37 15 0 -14 -113 -95 -127 -92 -8 2 -10 -3 -7
-13 3 -8 1 -15 -5 -15 -21 0 -26 -3 -73 -45 -28 -25 -115 -77 -216 -128 -252
-128 -301 -161 -133 -91 47 19 136 60 197 90 61 30 115 54 120 54 14 0 124 58
158 83 17 12 42 29 56 36 14 8 51 42 83 77 31 35 57 59 57 54 0 -22 -96 -123
-155 -163 -53 -35 -112 -87 -99 -87 5 0 38 20 72 45 34 25 62 41 62 36 0 -5
27 2 60 16 33 15 60 32 60 39 0 7 4 14 9 16 13 5 56 79 76 131 10 26 20 47 22
47 3 0 2 -19 -2 -42z m-275 -7 c-25 -21 -49 -36 -54 -33 -5 3 -6 0 -3 -5 16
-26 -125 -107 -230 -133 -45 -11 -114 -34 -154 -51 -41 -17 -101 -41 -134 -54
-99 -37 -134 -53 -181 -85 -25 -16 -47 -30 -50 -30 -3 0 24 28 61 63 37 34 90
83 117 110 27 26 56 47 64 47 8 0 40 13 72 29 64 32 142 46 187 33 l30 -8 -33
-12 c-39 -13 -43 -24 -4 -12 15 5 52 17 82 26 59 18 166 84 188 115 7 11 18
17 23 14 5 -4 19 1 31 9 40 28 34 17 -12 -23z m-1795 -3 c-22 -11 -42 -25 -43
-30 -2 -4 -18 -15 -35 -22 -43 -19 -90 -65 -83 -82 3 -8 0 -11 -9 -8 -8 3 -44
-24 -88 -68 -106 -105 -189 -178 -201 -178 -5 0 6 16 25 37 44 46 26 36 -95
-57 -149 -113 -204 -150 -286 -187 -41 -19 -99 -46 -129 -60 -92 -42 -200
-163 -222 -246 -4 -17 -17 -59 -29 -92 -12 -33 -28 -107 -35 -165 l-14 -105 4
145 c4 152 22 258 36 210 l7 -25 1 28 c1 15 1 29 1 32 -1 3 5 12 12 19 27 28
48 56 48 64 0 8 19 27 78 81 17 17 32 35 32 40 0 12 160 171 173 171 5 0 17 8
26 18 9 10 52 45 96 77 44 32 100 74 124 92 24 18 54 33 67 33 12 0 30 7 39
16 16 17 115 58 115 48 0 -10 -64 -64 -77 -64 -6 0 -18 -8 -25 -18 -12 -16
-90 -78 -205 -162 -26 -19 -68 -45 -93 -58 -100 -51 -217 -128 -207 -138 4 -4
24 5 45 20 21 14 46 26 57 26 10 0 33 11 51 25 18 14 35 25 37 25 11 0 133 86
145 102 7 10 18 18 24 18 5 0 19 11 30 25 11 14 24 25 30 25 6 0 41 25 78 55
37 30 72 55 77 55 6 0 16 7 24 16 18 21 104 80 94 64 -5 -8 -3 -11 6 -8 8 3
13 11 12 17 -2 6 4 11 12 11 8 0 14 4 13 9 -2 5 18 25 45 45 26 20 47 41 47
45 0 5 16 17 37 26 20 10 57 30 82 46 24 16 54 29 65 29 15 -1 10 -7 -19 -22z
m1955 13 c0 -13 -81 -101 -93 -101 -7 0 3 14 21 31 18 17 40 41 48 55 17 25
24 30 24 15z m17 -13 c-3 -8 -6 -5 -6 6 -1 11 2 17 5 13 3 -3 4 -12 1 -19z
m317 -31 c18 -13 18 -14 0 -21 -10 -4 -15 -4 -11 0 4 4 -1 13 -11 20 -23 18
-1 18 22 1z m-3517 -72 c-26 -25 -47 -43 -47 -40 0 10 83 95 88 90 3 -2 -16
-25 -41 -50z m2670 49 c-3 -3 -12 -4 -19 -1 -8 3 -5 6 6 6 11 1 17 -2 13 -5z
m-3086 -31 c-12 -20 -14 -14 -5 12 4 9 9 14 11 11 3 -2 0 -13 -6 -23z m3037
20 c-10 -2 -28 -2 -40 0 -13 2 -5 4 17 4 22 1 32 -1 23 -4z m945 -59 c86 -43
136 -75 187 -120 14 -12 44 -39 68 -59 23 -21 42 -43 42 -51 0 -7 10 -20 23
-28 12 -8 31 -30 42 -48 13 -22 -6 -8 -58 44 -78 78 -275 218 -307 218 -10 0
-23 6 -29 14 -6 7 -25 16 -41 20 -17 3 -33 14 -37 23 -3 10 -13 26 -22 36 -14
17 -13 17 14 7 17 -6 70 -31 118 -56z m-1016 50 c-3 -3 -12 -4 -19 -1 -8 3 -5
6 6 6 11 1 17 -2 13 -5z m498 -59 c-22 -19 -47 -35 -55 -34 -11 0 -10 3 4 12
10 7 31 22 45 34 14 12 31 22 36 22 6 0 -8 -15 -30 -34z m-2616 -11 c4 3 8 -1
8 -9 0 -12 -3 -12 -16 -2 -12 10 -14 9 -8 -6 5 -13 -6 -31 -42 -67 -26 -28
-52 -50 -57 -50 -5 0 -21 -12 -35 -27 -14 -16 -71 -64 -128 -108 -57 -44 -121
-98 -144 -120 l-40 -40 34 43 c19 24 48 60 64 81 58 74 149 171 160 171 7 0
26 15 43 33 45 47 89 78 111 80 11 0 23 10 26 22 4 13 8 15 12 7 2 -6 8 -10
12 -8z m111 12 c0 -2 -7 -7 -16 -10 -8 -3 -12 -2 -9 4 6 10 25 14 25 6z m1690
-27 c0 -5 -5 -9 -12 -9 -6 0 -21 -8 -32 -19 -31 -28 -124 -91 -135 -91 -5 0
-41 -25 -79 -55 -39 -30 -77 -55 -85 -55 -8 0 -22 -9 -32 -20 -10 -11 -40 -34
-67 -51 -37 -24 -46 -34 -36 -41 10 -8 10 -9 -2 -5 -23 6 -12 48 23 85 17 17
35 32 40 32 5 0 34 22 65 48 31 27 70 57 86 68 16 10 47 31 70 46 22 15 38 28
35 28 -10 0 -103 -53 -117 -67 -19 -19 -27 -16 -11 4 25 30 133 94 151 89 10
-2 16 0 12 5 -3 5 -3 9 0 9 2 0 12 3 22 7 12 4 15 3 10 -5 -9 -15 3 -15 33 2
25 14 61 11 61 -5z m-2260 -19 c0 -5 -4 -10 -10 -10 -5 0 -10 -6 -10 -13 0 -7
-18 -32 -39 -57 -77 -88 -137 -166 -188 -245 -29 -44 -53 -75 -53 -69 0 6 10
26 23 45 12 19 27 45 33 59 6 14 32 48 58 76 25 29 46 56 46 60 0 5 25 36 55
69 30 33 58 68 61 78 6 18 24 24 24 7z m2999 -4 c-11 -9 -118 -74 -139 -85
-24 -12 -24 -11 -5 3 68 53 138 97 144 90 2 -2 2 -6 0 -8z m-3339 0 c0 -3 -4
-8 -10 -11 -5 -3 -10 -1 -10 4 0 6 5 11 10 11 6 0 10 -2 10 -4z m3951 -74 c67
-34 159 -111 213 -181 22 -27 43 -48 46 -46 8 5 43 -41 53 -67 3 -10 2 -18 -3
-18 -5 0 -14 8 -19 18 -16 27 -13 12 10 -48 24 -65 19 -61 -36 24 -22 35 -63
83 -91 107 -93 81 -109 94 -114 94 -9 0 -99 65 -106 77 -10 15 11 2 64 -40 23
-19 42 -31 42 -28 0 11 -70 69 -127 104 -51 33 -69 57 -23 32 12 -6 24 -9 28
-6 3 3 1 6 -4 6 -5 0 -20 10 -34 21 l-25 21 35 -21 c19 -11 60 -34 91 -49z
m-3411 43 c0 -9 6 -12 18 -8 14 5 13 3 -3 -10 -11 -8 -24 -13 -28 -10 -10 6
-37 -29 -31 -39 3 -5 10 -8 15 -8 6 0 8 4 4 9 -3 5 -1 12 4 15 23 14 1 -28
-31 -62 -20 -20 -59 -66 -88 -102 -28 -36 -59 -69 -68 -74 -15 -9 -16 -8 -2 9
14 17 14 18 -6 7 -12 -6 -34 -26 -48 -44 -48 -61 -67 -78 -78 -72 -7 4 -8 2
-4 -4 7 -11 -9 -51 -24 -62 -3 -3 -19 -23 -34 -45 -16 -22 -25 -31 -21 -20 4
11 11 35 15 53 8 34 55 102 70 102 5 0 7 6 4 13 -3 8 9 29 26 46 16 18 30 35
30 37 0 14 118 159 172 210 73 72 108 91 108 59z m3156 -74 c-14 -28 -26 -55
-26 -61 0 -16 -72 -110 -116 -151 -59 -55 -135 -109 -153 -109 -10 0 -4 7 14
19 17 10 46 35 64 55 19 20 40 36 46 36 27 0 134 160 149 224 4 15 15 40 24
54 16 25 17 26 20 5 2 -12 -8 -44 -22 -72z m-2856 65 c0 -2 -7 -7 -16 -10 -8
-3 -12 -2 -9 4 6 10 25 14 25 6z m3215 -48 c5 -5 4 -8 -2 -8 -14 0 -63 44 -63
55 0 5 12 -2 28 -16 15 -13 31 -27 37 -31z m-4127 -65 c-68 -101 -108 -187
-78 -168 15 9 13 3 -16 -51 -35 -66 -42 -72 -50 -40 -10 40 -1 62 71 174 36
56 65 105 65 108 0 8 54 62 58 59 2 -2 -20 -39 -50 -82z m860 79 c15 12 16 11
3 -4 -7 -10 -17 -16 -21 -13 -5 3 -10 1 -12 -5 -2 -6 -13 -12 -26 -15 -13 -2
-20 0 -17 6 4 5 13 9 21 9 8 0 18 8 21 17 4 11 8 13 11 5 3 -10 7 -10 20 0z
m-1047 -88 c-11 -27 -20 -41 -20 -32 -1 23 32 105 36 91 2 -5 -5 -32 -16 -59z
m3238 62 c-10 -9 -89 -46 -89 -41 0 6 72 44 84 45 5 0 7 -2 5 -4z m1112 -13
c13 -16 12 -17 -3 -4 -10 7 -18 15 -18 17 0 8 8 3 21 -13z m-3321 -7 c0 -10
-65 -65 -70 -60 -2 3 11 19 30 35 37 30 40 32 40 25z m3131 -17 c29 -26 125
-89 136 -89 13 -1 83 -67 83 -79 0 -6 4 -11 9 -11 11 0 101 -114 101 -127 0
-4 15 -33 34 -64 19 -31 37 -72 40 -90 l7 -34 -17 33 c-9 18 -19 31 -21 28 -6
-5 -43 31 -43 42 0 10 -58 91 -85 117 -11 11 -27 33 -35 48 -8 16 -30 40 -51
55 -47 35 -91 87 -81 97 4 5 0 6 -8 4 -9 -3 -35 16 -62 43 -47 48 -52 66 -7
27z m210 -16 c13 -16 12 -17 -3 -4 -10 7 -18 15 -18 17 0 8 8 3 21 -13z
m-3781 -12 c0 -4 -25 -35 -57 -67 -31 -33 -51 -50 -46 -39 6 11 29 37 52 58
23 21 41 42 41 47 0 6 2 10 5 10 3 0 5 -4 5 -9z m330 5 c0 -2 -8 -10 -17 -17
-16 -13 -17 -12 -4 4 13 16 21 21 21 13z m1158 -21 c-6 -14 -13 -23 -15 -21
-5 5 15 46 22 46 3 0 -1 -11 -7 -25z m590 -87 c-63 -62 -139 -133 -168 -158
-29 -25 -64 -56 -79 -70 -14 -14 -43 -38 -64 -54 l-38 -28 27 53 c14 29 47 74
73 100 25 25 59 61 75 78 16 17 34 31 41 31 6 0 27 16 46 36 32 34 173 124
193 124 5 0 -43 -51 -106 -112z m1736 76 c5 -14 4 -15 -9 -4 -17 14 -19 20 -6
20 5 0 12 -7 15 -16z m-4525 -63 c-12 -34 -23 -60 -25 -58 -2 2 6 32 17 66 12
34 23 60 25 58 2 -2 -6 -32 -17 -66z m976 39 c-3 -5 -11 -10 -16 -10 -6 0 -7
5 -4 10 3 6 11 10 16 10 6 0 7 -4 4 -10z m505 -14 c-26 -24 -100 -71 -100 -63
0 3 23 19 50 37 28 18 50 36 50 41 0 5 6 9 12 9 7 0 1 -11 -12 -24z m820 13
c0 -6 7 -9 15 -5 22 8 18 -2 -6 -15 -15 -8 -19 -8 -15 0 4 6 3 11 -2 11 -6 0
-13 -7 -16 -16 -4 -9 -9 -14 -12 -11 -7 6 18 47 28 47 5 0 8 -5 8 -11z m149 8
c-2 -1 -13 -9 -24 -17 -19 -14 -19 -14 -6 3 7 9 18 17 24 17 6 0 8 -1 6 -3z
m2142 -62 c6 -11 -3 -4 -20 15 -17 19 -30 40 -31 45 0 11 36 -30 51 -60z
m-4480 23 c-3 -21 -6 -26 -9 -15 -3 17 3 47 11 47 2 0 1 -15 -2 -32z m807 -8
c-7 -11 -17 -20 -22 -20 -5 0 -1 9 9 20 10 11 20 20 22 20 2 0 -2 -9 -9 -20z
m852 -11 c-19 -12 -64 -41 -100 -64 -107 -70 -199 -112 -295 -134 -22 -5 -51
-12 -65 -16 -14 -4 -1 7 29 24 30 17 60 31 67 31 7 0 62 25 123 55 61 30 115
55 121 55 5 0 38 16 72 35 69 37 105 48 48 14z m-1400 -14 c4 3 6 -4 3 -15 -3
-11 -10 -17 -16 -13 -6 3 -7 1 -3 -6 9 -14 -37 -96 -58 -104 -21 -8 -28 20
-12 56 16 39 70 101 74 87 2 -5 7 -8 12 -5z m1890 6 c0 -5 -21 -30 -47 -57
l-48 -47 40 28 c22 15 51 38 65 49 15 12 7 3 -16 -19 -55 -52 -121 -105 -130
-105 -4 0 -33 -22 -64 -49 -31 -27 -70 -58 -87 -68 -44 -27 -86 -56 -107 -75
-19 -17 -76 -41 -76 -32 0 2 12 9 26 14 15 6 22 14 18 22 -5 7 -3 8 6 3 7 -4
15 -3 19 2 3 6 37 31 75 57 91 60 143 104 240 203 88 89 86 87 86 74z m-1400
-15 c0 -2 -8 -10 -17 -17 -16 -13 -17 -12 -4 4 13 16 21 21 21 13z m1281 -19
c-10 -9 -11 -8 -5 6 3 10 9 15 12 12 3 -3 0 -11 -7 -18z m1209 8 c-14 -8 -29
-14 -35 -14 -5 0 1 6 15 14 14 8 30 14 35 14 6 0 -1 -6 -15 -14z m-520 -8 c0
-2 -37 -32 -81 -68 -45 -35 -97 -77 -115 -93 -19 -15 -34 -23 -34 -18 0 6 19
23 41 39 23 15 54 41 69 57 33 33 120 94 120 83z m452 -19 c-6 -7 -25 -21 -44
-31 -32 -17 -32 -17 -9 0 14 10 30 23 35 30 14 16 31 17 18 1z m1177 -32 c24
-24 40 -49 37 -55 -11 -17 -19 -13 -41 17 -15 21 -15 24 -2 13 9 -7 17 -9 17
-3 0 5 -17 24 -37 41 -21 17 -33 30 -28 31 6 0 30 -20 54 -44z m-4492 12 c-3
-8 -6 -5 -6 6 -1 11 2 17 5 13 3 -3 4 -12 1 -19z m1947 0 c-10 -13 -36 -40
-56 -61 -20 -21 -46 -55 -58 -75 l-22 -37 43 45 c57 58 99 93 106 86 8 -8 -16
-34 -38 -41 -10 -4 -19 -12 -19 -19 0 -6 -26 -39 -58 -72 -88 -90 -150 -167
-166 -205 -8 -19 -24 -43 -35 -53 -12 -11 -21 -24 -21 -29 0 -6 -11 -24 -23
-41 -13 -17 -36 -53 -52 -79 -15 -26 -29 -46 -32 -43 -10 10 144 264 190 314
11 12 22 29 23 38 3 22 -91 -65 -106 -98 -7 -15 -18 -32 -25 -38 -17 -14 30
80 53 105 10 11 36 43 57 70 50 63 237 255 249 255 5 0 1 -10 -10 -22z m-1241
-32 c-15 -20 -32 -36 -36 -36 -4 0 -3 6 3 13 5 6 20 25 31 40 12 15 23 26 26
23 3 -2 -8 -21 -24 -40z m137 40 c0 -2 -8 -10 -17 -17 -16 -13 -17 -12 -4 4
13 16 21 21 21 13z m2030 -6 c0 -5 -2 -10 -4 -10 -3 0 -8 5 -11 10 -3 6 -1 10
4 10 6 0 11 -4 11 -10z m-560 -15 c-7 -9 -15 -13 -19 -10 -3 3 1 10 9 15 21
14 24 12 10 -5z m1225 -47 c-8 -24 -24 -72 -36 -108 -20 -59 -49 -184 -79
-345 -20 -104 -63 -238 -92 -284 -16 -25 -28 -51 -28 -58 0 -7 -4 -13 -8 -13
-10 0 -142 -155 -143 -167 0 -5 -10 -18 -21 -30 -26 -28 -6 -32 32 -7 25 15
25 15 -1 -8 -14 -12 -39 -33 -55 -46 l-29 -23 42 23 c89 49 287 235 349 329
24 36 47 81 50 100 4 19 12 45 19 59 7 14 15 41 19 60 l6 35 -19 -40 c-11 -22
-20 -45 -20 -51 -1 -19 -49 -116 -84 -169 -17 -28 -57 -73 -87 -100 l-54 -50
57 68 c31 38 57 76 57 86 0 10 10 31 21 46 14 16 18 29 12 33 -6 4 5 39 29 91
21 46 43 102 48 125 12 53 75 229 90 253 9 14 10 7 6 -37 -4 -30 -9 -66 -13
-80 -3 -14 -2 -21 3 -17 11 11 33 95 34 132 0 24 2 27 10 13 7 -11 7 -40 0
-85 -15 -103 -11 -107 15 -14 14 46 27 86 30 89 3 3 5 -17 6 -44 l1 -49 15 60
c17 72 33 93 33 45 0 -19 4 -40 8 -46 11 -17 112 -24 112 -8 0 23 28 4 42 -29
8 -21 13 -71 12 -142 -1 -93 -5 -121 -28 -185 -37 -103 -41 -125 -11 -61 54
114 72 302 41 420 -8 29 -12 50 -9 47 3 -3 12 2 19 12 11 15 15 10 39 -43 40
-90 47 -145 35 -255 -16 -139 -53 -241 -119 -330 -32 -44 -64 -101 -58 -106
11 -11 118 115 134 156 9 25 20 50 24 56 18 23 40 152 41 238 1 60 -6 124 -20
190 -12 55 -20 101 -17 104 2 2 7 -7 11 -22 3 -14 12 -26 19 -26 7 0 22 -28
33 -62 14 -42 21 -54 22 -37 0 14 -9 52 -20 84 -22 64 -21 74 2 48 29 -33 49
-125 53 -243 4 -109 3 -111 -5 -37 -14 119 -29 130 -30 21 0 -110 -23 -229
-58 -304 -34 -73 -36 -79 -18 -56 12 15 16 16 16 5 0 -8 13 6 28 31 31 50 77
194 67 210 -3 5 -1 10 4 10 6 0 11 -12 12 -27 1 -21 4 -16 11 17 5 25 7 102 3
173 l-6 127 23 0 c13 0 29 -9 36 -21 7 -12 16 -18 19 -15 7 6 2 16 -78 181
-30 60 -56 114 -57 120 -9 26 48 -67 77 -125 136 -274 134 -268 137 -442 2
-144 1 -149 -27 -209 -16 -33 -39 -74 -50 -91 -12 -16 -19 -32 -16 -34 10 -10
76 89 92 137 8 25 13 60 10 80 -4 24 -3 28 3 14 18 -41 35 110 29 254 l-5 136
24 -53 c25 -54 43 -150 45 -232 0 -28 3 -38 7 -27 6 13 12 4 26 -35 10 -29 24
-66 31 -83 19 -42 60 -223 74 -325 16 -112 25 -501 13 -519 -7 -9 -53 -16
-163 -22 -483 -26 -635 -45 -814 -99 -38 -12 -92 -28 -119 -36 -27 -7 -79 -28
-115 -44 -73 -34 -198 -70 -246 -70 -17 0 -55 7 -84 16 -117 34 -297 64 -462
75 -297 21 -794 -15 -966 -71 -34 -11 -68 -20 -75 -20 -17 0 2 17 27 23 13 3
9 5 -12 6 -18 0 -33 6 -33 12 0 7 -10 9 -25 7 -14 -3 -25 -1 -25 4 0 10 -127
1 -145 -11 -29 -17 -116 -41 -155 -42 -32 -1 -8 -7 80 -21 69 -11 134 -20 145
-21 28 -3 33 -21 34 -115 l1 -83 -62 7 c-76 7 -229 43 -242 55 -15 13 1 12
128 -16 64 -14 118 -25 121 -25 3 0 5 38 5 84 l0 83 -117 18 c-65 9 -138 20
-163 25 -44 8 -44 8 -10 10 27 2 22 4 -25 11 -89 12 -257 40 -284 46 l-24 6 8
195 c6 167 10 202 27 236 28 55 137 148 228 194 41 20 77 39 80 42 34 34 41
31 17 -7 -29 -45 -31 -53 -19 -53 10 0 94 108 109 140 6 14 12 19 12 13 1 -9
8 -10 26 -3 21 8 25 6 25 -8 1 -13 4 -11 16 8 11 19 14 20 10 5 -7 -29 -24
-99 -36 -144 -27 -102 -2 -70 41 56 16 47 40 104 52 126 12 22 32 59 44 83 31
60 37 55 12 -8 -11 -29 -25 -65 -31 -80 -5 -16 -14 -28 -20 -28 -5 0 -7 -4 -4
-9 4 -5 1 -32 -5 -59 -6 -28 -9 -66 -7 -84 3 -29 5 -26 17 26 7 33 18 70 24
83 10 23 10 23 24 3 14 -19 43 -185 43 -242 0 -15 4 -28 9 -28 5 0 12 35 15
78 9 124 66 428 77 411 5 -8 9 -4 12 12 4 22 4 22 6 -4 1 -32 20 -27 22 6 1
17 2 18 6 4 2 -9 8 -15 12 -12 9 5 7 -12 -16 -129 -10 -55 -14 -121 -12 -211
4 -123 3 -132 -18 -159 -13 -16 -23 -34 -23 -41 0 -7 -7 -18 -16 -26 -19 -16
-47 -69 -40 -76 3 -3 11 -2 19 3 7 5 4 1 -6 -8 -11 -10 -17 -18 -14 -18 3 0
13 -3 23 -7 13 -5 15 -3 9 7 -5 8 -3 11 6 8 8 -3 15 -10 15 -16 1 -7 2 -17 3
-23 1 -8 20 -10 64 -5 34 4 105 11 157 16 52 4 124 18 160 30 76 26 275 53
335 46 55 -7 135 -24 160 -35 98 -42 126 -42 142 -2 8 23 18 30 44 33 43 4 47
24 19 83 -15 30 -28 45 -41 45 -10 0 -19 4 -19 8 0 4 -15 15 -32 23 -18 9 -57
29 -86 44 -36 19 -74 30 -113 33 -33 3 -62 8 -65 13 -3 5 -13 5 -24 -1 -10 -6
-21 -6 -24 -1 -3 4 -21 7 -39 6 -59 -5 -64 10 -16 41 23 16 57 41 73 57 17 15
36 27 42 27 7 0 21 15 33 33 21 35 71 86 71 73 0 -12 -50 -71 -118 -140 l-57
-58 77 61 c42 34 92 81 111 104 33 41 157 233 157 242 0 13 140 160 185 195
18 14 19 13 8 -1 -7 -9 -10 -18 -7 -21 2 -3 -13 -23 -36 -44 -22 -21 -40 -43
-40 -49 0 -6 -12 -24 -27 -41 -35 -38 -83 -101 -83 -108 0 -3 -20 -32 -43 -63
-62 -82 -75 -104 -80 -138 -3 -16 -15 -52 -27 -78 -38 -85 -15 -60 28 31 23
48 60 107 82 131 57 62 49 38 -10 -34 -28 -33 -50 -64 -50 -70 0 -5 10 4 23
20 12 17 34 42 49 57 16 14 28 30 28 35 1 4 12 22 26 38 l26 30 -21 -41 c-11
-22 -29 -67 -40 -100 -11 -32 -23 -68 -27 -79 -5 -15 -2 -13 14 7 12 14 22 32
22 40 0 7 21 49 46 93 26 44 55 95 66 114 49 86 217 247 373 356 39 27 76 55
83 62 7 7 20 13 28 13 8 0 29 7 47 17 30 15 31 15 18 0 -7 -10 -18 -17 -23
-17 -6 0 -24 -10 -41 -22 -17 -12 -36 -23 -42 -24 -15 -2 -90 -54 -90 -62 0
-4 -10 -21 -23 -37 -13 -17 -20 -23 -16 -15 4 8 14 24 23 34 9 10 11 17 4 15
-19 -6 -153 -138 -153 -151 0 -6 10 -3 21 8 22 19 22 19 15 -8 -8 -36 5 -35
40 1 22 24 32 28 46 20 10 -5 18 -6 17 -2 -4 25 4 34 11 13 7 -21 8 -22 9 -5
1 11 8 29 17 40 13 17 16 18 24 5 8 -13 10 -12 10 3 0 9 5 17 11 17 5 0 7 5 3
11 -4 8 -9 7 -15 -2 -7 -12 -9 -12 -9 -1 0 8 9 16 20 19 11 3 18 8 16 12 -2 3
2 12 10 19 12 10 14 10 14 -2 0 -18 -49 -124 -61 -132 -4 -2 -5 -12 -2 -21 5
-12 3 -14 -7 -8 -9 5 -11 4 -6 -3 4 -7 0 -26 -8 -44 -8 -18 -24 -70 -35 -115
-21 -84 -66 -184 -109 -240 -14 -20 -19 -33 -12 -33 14 0 -10 -43 -41 -73 -30
-29 -22 -30 15 -2 19 14 37 36 40 48 3 12 16 33 29 47 27 29 58 86 122 220 49
103 55 107 26 14 -10 -32 -24 -79 -31 -104 -7 -25 -26 -78 -42 -118 -16 -41
-32 -80 -35 -88 -3 -8 -1 -14 5 -14 5 0 15 15 22 33 22 59 31 74 47 74 13 0
14 -10 9 -56 -8 -70 -1 -63 13 12 7 40 22 75 47 108 19 27 39 49 42 49 22 0
192 392 192 441 0 12 23 78 51 148 28 69 54 151 58 181 l9 55 2 -65 2 -65 13
52 c7 28 29 78 49 111 20 33 36 64 36 69 0 8 20 33 27 33 1 0 -4 -19 -12 -42z
m-1726 -1 c-20 -18 -52 -52 -71 -77 -19 -25 -53 -65 -76 -89 -23 -24 -44 -52
-47 -62 -4 -11 -11 -19 -17 -19 -12 0 -48 -39 -48 -52 0 -5 -5 -6 -10 -3 -6 4
10 32 36 66 25 33 44 62 42 64 -8 8 -96 -102 -113 -141 -10 -21 -19 -33 -22
-26 -3 6 -9 10 -14 7 -5 -4 -6 1 -2 10 4 11 8 13 13 6 4 -7 11 -1 18 14 7 15
10 31 7 36 -4 5 -1 9 5 9 6 0 9 4 6 9 -17 26 169 207 254 248 36 17 67 32 70
32 3 0 -11 -14 -31 -32z m1452 9 c-13 -13 -34 -27 -47 -30 -13 -4 -24 -10 -24
-15 0 -9 -77 -69 -135 -106 -50 -31 -100 -73 -94 -79 4 -5 82 45 116 74 7 5
15 10 19 10 7 0 76 53 114 88 43 41 69 49 35 12 -67 -73 -82 -87 -110 -102
-17 -8 -60 -33 -96 -56 -36 -22 -74 -40 -85 -39 -10 1 -18 -3 -17 -10 2 -6
-16 -26 -40 -45 -23 -18 -44 -35 -47 -38 -3 -3 -14 -12 -25 -20 -17 -12 -16
-10 3 11 12 14 19 29 15 34 -5 4 -3 6 2 2 6 -3 28 8 49 24 45 33 30 40 -17 8
l-32 -21 28 24 c16 12 50 43 76 68 46 45 135 110 147 109 4 0 10 3 13 8 3 5
23 19 44 32 20 13 34 27 31 33 -4 7 -2 8 4 4 7 -4 29 5 49 19 47 31 53 32 24
1z m1266 -43 c-12 32 21 18 52 -22 28 -35 91 -150 91 -166 0 -3 -5 -3 -11 1
-8 4 -9 -1 -4 -16 5 -16 4 -20 -5 -15 -7 4 -9 17 -5 32 3 15 2 22 -4 19 -5 -4
-17 4 -25 16 -21 30 -20 19 4 -37 11 -26 20 -59 20 -75 0 -16 4 -39 9 -52 4
-13 11 -50 14 -83 6 -57 6 -59 -8 -30 -8 17 -14 40 -15 52 0 22 -54 130 -92
185 -10 14 -18 33 -18 40 0 8 -10 23 -21 34 -35 31 -92 126 -81 133 7 4 8 12
2 21 -20 32 -8 29 47 -11 33 -25 54 -35 50 -26z m-2237 53 c0 -2 -7 -7 -16
-10 -8 -3 -12 -2 -9 4 6 10 25 14 25 6z m1129 -66 c-18 -33 -42 -71 -54 -82
-11 -12 -33 -38 -48 -57 -30 -38 -88 -80 -187 -137 -36 -20 -85 -50 -109 -66
-25 -15 -51 -28 -58 -28 -8 0 -11 -4 -8 -10 3 -5 2 -10 -3 -10 -19 0 -21 14
-5 32 25 28 2 21 -37 -10 -19 -16 -46 -34 -60 -41 -24 -11 -24 -11 -6 3 11 9
16 16 10 16 -5 1 2 10 15 20 13 11 21 20 17 20 -3 0 12 17 32 38 21 20 29 30
18 21 -22 -17 -57 -33 -67 -31 -4 1 -15 -8 -24 -18 -10 -11 -22 -20 -27 -20
-5 0 -26 -12 -46 -26 -20 -15 1 10 48 55 47 45 97 89 113 98 15 10 25 23 23
29 -3 7 2 10 12 8 9 -3 44 13 77 35 63 42 98 55 55 20 l-25 -20 31 15 c17 8
34 22 37 31 4 8 14 15 24 15 15 0 16 -2 3 -10 -9 -6 -11 -10 -3 -10 8 0 10 -7
6 -17 -5 -11 3 -8 23 10 30 28 61 43 71 33 3 -3 -18 -31 -46 -62 -29 -31 -49
-59 -45 -63 4 -3 9 0 11 7 3 6 10 12 16 12 11 0 97 76 97 84 0 3 25 30 55 61
30 31 55 61 55 68 0 16 30 60 37 54 2 -3 -10 -33 -28 -67z m-3442 38 c-3 -8
-6 -5 -6 6 -1 11 2 17 5 13 3 -3 4 -12 1 -19z m766 7 c-3 -9 -8 -14 -10 -11
-3 3 -2 9 2 15 9 16 15 13 8 -4z m-776 -62 c-3 -10 -5 -4 -5 12 0 17 2 24 5
18 2 -7 2 -21 0 -30z m763 33 c0 -2 -8 -10 -17 -17 -16 -13 -17 -12 -4 4 13
16 21 21 21 13z m915 -8 c-11 -6 -22 -14 -25 -18 -3 -3 -16 -14 -30 -23 -14
-9 -85 -76 -157 -149 -73 -72 -135 -129 -139 -125 -3 3 5 16 18 29 13 13 17
17 8 11 -28 -22 -35 -14 -10 12 12 13 27 22 32 19 5 -3 8 -2 7 3 -3 20 2 33
14 33 7 0 23 18 36 40 12 22 25 40 29 40 4 0 37 26 74 58 60 52 107 77 148 80
10 1 8 -3 -5 -10z m3154 -83 c0 -11 -8 5 -19 35 -11 30 -19 57 -19 60 1 14 38
-78 38 -95z m-4398 48 c-12 -20 -14 -14 -5 12 4 9 9 14 11 11 3 -2 0 -13 -6
-23z m2058 -23 c-18 -22 -34 -40 -37 -40 -5 0 12 24 42 58 33 37 29 25 -5 -18z
m491 30 c-35 -24 -54 -31 -30 -11 14 11 30 21 35 21 6 0 3 -5 -5 -10z m-2270
-44 c-12 -20 -18 -36 -15 -36 4 0 2 -7 -5 -15 -17 -21 -1 -19 23 3 19 16 20
16 9 -5 -12 -22 -90 -93 -103 -93 -23 0 -15 22 18 50 21 18 31 29 23 24 -12
-6 -11 -3 2 16 10 14 27 42 40 62 12 21 24 36 26 33 2 -2 -6 -20 -18 -39z
m850 39 c0 -2 -20 -18 -45 -35 -32 -22 -52 -29 -68 -25 -14 4 -18 3 -9 -3 10
-6 0 -22 -40 -60 -29 -28 -54 -49 -56 -47 -3 2 16 23 42 46 34 30 45 47 41 60
-4 12 -1 19 6 19 7 0 9 3 6 6 -4 4 -18 -1 -31 -10 -30 -19 -53 -21 -59 -3 -3
9 -7 9 -20 -2 -11 -9 -17 -10 -17 -2 0 6 6 12 13 12 6 1 19 3 27 4 8 0 31 4
50 8 19 4 52 9 72 11 20 3 45 9 55 15 19 11 33 14 33 6z m2936 -80 c85 -87
175 -300 173 -410 l-1 -60 -18 72 c-10 39 -34 102 -53 140 -19 37 -42 86 -51
107 -10 22 -32 63 -50 90 -51 79 -66 105 -66 111 0 14 17 1 66 -50z m-4155 14
c-5 -13 -10 -19 -10 -12 -1 15 10 45 15 40 3 -2 0 -15 -5 -28z m950 -6 c-6
-10 -27 -36 -48 -59 -21 -22 -54 -63 -72 -90 -19 -27 -40 -52 -45 -56 -16 -11
-26 -10 -26 3 0 5 4 8 9 4 12 -7 40 32 80 111 30 60 52 86 81 97 26 10 31 7
21 -10z m257 -34 c-50 -73 -81 -109 -90 -103 -5 3 -3 13 7 23 8 9 34 40 57 68
45 58 63 65 26 12z m1062 37 c0 -3 -4 -8 -10 -11 -5 -3 -10 -1 -10 4 0 6 5 11
10 11 6 0 10 -2 10 -4z m960 -33 c-1 -75 -41 -262 -63 -291 -28 -36 -25 17 7
161 20 86 36 159 36 162 0 3 5 5 10 5 6 0 10 -17 10 -37z m880 -122 c1 -9 7
-27 15 -41 20 -35 18 -49 -2 -21 -10 13 -27 33 -37 44 -20 21 -46 111 -45 157
0 18 10 3 34 -49 19 -40 35 -81 35 -90z m-4230 83 c-10 -27 -19 -41 -20 -32 0
9 -3 25 -6 35 -4 13 -3 14 4 5 7 -10 12 -6 22 18 21 50 21 28 0 -26z m2662 29
c-6 -10 -20 -27 -33 -38 l-22 -20 13 25 c16 31 42 62 47 56 3 -2 0 -13 -5 -23z
m1455 -143 c2 -20 -9 2 -26 50 -17 47 -30 92 -30 100 1 23 50 -110 56 -150z
m-4010 128 c-3 -8 -6 -5 -6 6 -1 11 2 17 5 13 3 -3 4 -12 1 -19z m2094 -1
c-10 -9 -11 -8 -5 6 3 10 9 15 12 12 3 -3 0 -11 -7 -18z m392 -8 c-20 -34 -43
-57 -43 -42 0 9 50 73 57 73 2 0 -4 -14 -14 -31z m-418 -40 c-9 -17 -19 -29
-22 -26 -5 5 25 57 33 57 3 0 -3 -14 -11 -31z m-2264 -138 c-37 -73 -47 -64
-55 50 l-6 74 15 -65 c21 -92 26 -95 20 -13 -5 71 0 103 15 103 5 0 11 -10 13
-22 4 -19 5 -18 8 7 1 17 4 2 6 -32 3 -48 -1 -71 -16 -102z m473 130 c6 -9
-22 -37 -33 -34 -3 0 -5 -3 -4 -7 2 -5 -11 -18 -27 -30 -42 -30 -140 -79 -132
-66 4 6 7 14 7 18 0 5 18 17 40 29 22 12 59 39 82 60 43 40 57 46 67 30z m66
-46 c-30 -30 -60 -55 -66 -55 -12 0 -74 -71 -74 -85 0 -4 8 -1 18 6 15 13 16
12 3 -3 -7 -10 -17 -16 -21 -13 -5 3 -31 -22 -59 -56 -28 -33 -51 -54 -51 -46
0 17 44 74 73 95 17 13 71 90 72 104 0 9 136 108 149 108 5 0 -14 -25 -44 -55z
m65 10 c-15 -19 -30 -33 -33 -31 -5 6 51 75 57 70 1 -1 -9 -19 -24 -39z m38
-7 c-20 -37 -38 -58 -48 -58 -4 0 -23 -14 -42 -30 -19 -17 -38 -28 -43 -25 -5
3 -18 -7 -29 -21 -12 -15 -21 -22 -21 -17 0 13 37 46 54 49 18 2 116 94 116
108 0 14 22 38 28 32 2 -3 -4 -19 -15 -38z m375 22 c-7 -10 -14 -17 -17 -15
-4 4 18 35 25 35 2 0 -1 -9 -8 -20z m622 17 c0 -2 -11 -18 -25 -37 -14 -19
-25 -31 -25 -27 0 5 10 21 22 37 20 27 28 35 28 27z m811 -74 c-16 -32 -30
-51 -30 -43 -1 23 51 127 56 113 2 -6 -9 -38 -26 -70z m-2381 57 c0 -5 -4 -10
-10 -10 -5 0 -10 5 -10 10 0 6 5 10 10 10 6 0 10 -4 10 -10z m2549 -44 c-29
-50 -37 -37 -8 14 13 23 25 37 27 32 1 -5 -7 -26 -19 -46z m-2732 22 c-3 -8
-6 -5 -6 6 -1 11 2 17 5 13 3 -3 4 -12 1 -19z m3273 -93 c-16 -60 -29 -97 -29
-81 -1 27 34 169 46 189 13 21 8 -7 -17 -108z m-2000 92 c0 -2 -10 -12 -22
-23 l-23 -19 19 23 c18 21 26 27 26 19z m261 -30 c-10 -9 -11 -8 -5 6 3 10 9
15 12 12 3 -3 0 -11 -7 -18z m950 -10 c-34 -56 -51 -91 -51 -109 0 -10 -4 -18
-10 -18 -5 0 -10 -8 -10 -19 0 -10 -22 -56 -49 -103 -26 -46 -54 -102 -62
-124 -7 -21 -17 -43 -21 -48 -4 -6 -8 -18 -8 -28 0 -10 -4 -18 -10 -18 -5 0
-10 -4 -10 -9 0 -8 -37 -75 -63 -114 -7 -10 -33 -42 -59 -70 l-48 -52 0 78 c0
86 19 153 77 277 62 133 85 174 114 212 16 20 29 40 29 43 0 23 151 135 182
135 19 0 19 -1 -1 -33z m826 -9 c-3 -8 -6 -5 -6 6 -1 11 2 17 5 13 3 -3 4 -12
1 -19z m-511 3 c-4 -5 0 -11 6 -13 8 -3 4 -10 -11 -17 -19 -11 -22 -11 -15 1
5 7 9 16 10 21 3 15 4 17 10 17 3 0 3 -4 0 -9z m-1329 -14 c0 -8 -6 -14 -14
-14 -9 0 -10 4 -2 14 6 7 12 13 14 13 1 0 2 -6 2 -13z m-1454 -262 l6 -130
-14 95 c-18 128 -25 239 -17 275 8 37 16 -46 25 -240z m31 88 c4 -54 3 -114
-2 -133 -6 -26 -10 3 -15 115 -3 83 -8 161 -11 175 -3 14 1 6 8 -17 8 -23 17
-86 20 -140z m480 160 c-73 -67 -199 -151 -209 -141 -8 7 50 62 95 88 22 14
56 35 73 47 40 27 70 31 41 6z m2157 -6 c-10 -9 -11 -8 -5 6 3 10 9 15 12 12
3 -3 0 -11 -7 -18z m-1388 -4 c-3 -7 -6 -13 -8 -13 -2 0 -5 6 -8 13 -3 8 1 14
8 14 7 0 11 -6 8 -14z m1920 -3 c3 14 4 -9 2 -50 -3 -53 -1 -71 6 -60 14 20 2
-24 -17 -64 -7 -16 -11 -32 -8 -37 3 -5 0 -9 -7 -9 -8 0 -10 11 -5 38 4 20 9
62 11 92 l5 55 -13 -42 c-6 -23 -15 -45 -19 -49 -4 -4 -5 -19 -2 -33 4 -19 3
-22 -4 -12 -8 11 -15 0 -28 -45 -17 -56 -18 -58 -25 -29 -6 27 -7 26 -9 -15
-3 -40 -4 -41 -7 -12 -7 53 14 163 42 217 l25 50 -5 -40 -6 -40 23 53 c20 45
24 49 29 30 6 -23 6 -23 12 2z m72 -65 c-17 -74 -77 -225 -82 -208 -6 16 44
156 50 141 3 -7 6 -3 6 9 1 12 5 32 10 45 6 13 13 41 17 63 3 22 8 35 11 29 2
-7 -3 -42 -12 -79z m1045 -92 c-6 -38 -8 -23 -8 67 1 107 1 110 8 48 5 -38 5
-89 0 -115z m-1462 147 c-7 -10 -14 -17 -17 -15 -4 4 18 35 25 35 2 0 -1 -9
-8 -20z m-1803 -17 c-3 -16 -10 -32 -15 -37 -5 -5 -4 7 2 27 13 43 23 50 13
10z m1455 -50 c-10 -16 -11 -15 -6 7 3 14 6 32 7 40 1 8 4 5 6 -7 2 -12 -1
-30 -7 -40z m544 23 c-16 -14 -36 -25 -44 -26 -8 0 -1 9 16 19 18 11 35 25 39
31 4 6 9 9 12 6 3 -3 -8 -16 -23 -30z m-228 5 c-6 -9 -46 -22 -46 -15 0 3 10
9 23 14 29 11 29 11 23 1z m-802 -23 c19 -21 18 -23 -2 -87 -11 -36 -29 -91
-40 -121 -47 -130 -76 -386 -53 -475 6 -25 10 -49 7 -53 -2 -4 -53 -4 -112 0
-124 8 -147 2 -228 -64 -28 -23 -43 -33 -33 -22 13 16 17 39 17 108 0 121 21
253 50 321 5 11 13 43 19 70 11 58 35 108 45 97 5 -4 7 0 5 8 -4 21 20 90 32
90 5 0 9 9 9 19 0 11 5 23 10 26 6 4 7 11 4 17 -4 7 -2 8 5 4 12 -8 34 9 44
37 13 35 43 13 32 -24 -4 -12 -12 -18 -21 -15 -7 3 -16 0 -20 -6 -4 -6 -3 -8
4 -4 20 12 23 -13 8 -59 -30 -87 -54 -192 -60 -261 -4 -46 -3 -62 3 -49 5 11
10 31 10 45 1 14 8 38 16 54 9 16 13 38 10 50 -3 12 -2 15 1 8 3 -7 16 10 31
40 46 96 56 112 110 181 30 37 62 67 71 67 15 0 15 2 2 10 -8 5 -10 10 -5 10
6 0 19 -10 29 -22z m-114 9 c0 -2 -9 -14 -20 -27 -28 -32 -25 -51 3 -20 40 44
62 56 32 17 -17 -21 -40 -44 -52 -53 -13 -8 -23 -20 -23 -26 0 -7 7 -3 15 8 8
10 15 14 15 8 0 -6 -9 -19 -20 -29 -11 -10 -20 -25 -20 -34 0 -9 -5 -23 -10
-31 -8 -11 -9 -7 -4 15 4 17 9 34 13 40 3 5 6 17 6 25 1 8 2 23 3 32 3 21 62
94 62 75z m855 -27 c-3 -5 -12 -10 -18 -10 -7 0 -6 4 3 10 19 12 23 12 15 0z
m55 6 c0 -2 -8 -10 -17 -17 -16 -13 -17 -12 -4 4 13 16 21 21 21 13z m-616
-46 c-10 -16 -20 -27 -22 -25 -5 5 26 55 34 55 3 0 -3 -13 -12 -30z m-2235
-94 c12 -84 5 -176 -10 -126 -7 26 -12 216 -5 209 2 -2 9 -40 15 -83z m2771
20 c0 -2 -8 -10 -17 -17 -16 -13 -17 -12 -4 4 13 16 21 21 21 13z m436 -52
c-4 -9 -9 -15 -11 -12 -3 3 -3 13 1 22 4 9 9 15 11 12 3 -3 3 -13 -1 -22z
m-486 -7 c0 -2 -12 -14 -27 -28 l-28 -24 24 28 c23 25 31 32 31 24z m473 -92
c-15 -30 -29 -53 -31 -51 -4 5 46 106 53 106 3 0 -7 -25 -22 -55z m892 18 c-9
-21 -21 -42 -26 -48 -9 -8 14 55 28 78 13 21 11 2 -2 -30z m-1425 3 c0 -2 -13
-20 -30 -41 -16 -20 -27 -42 -23 -48 3 -6 1 -7 -6 -3 -7 4 -20 -2 -31 -16 -11
-13 -19 -19 -20 -15 0 8 101 127 107 127 2 0 3 -2 3 -4z m-2593 -78 c-3 -7 -5
-2 -5 12 0 14 2 19 5 13 2 -7 2 -19 0 -25z m2343 -103 c-7 -9 -15 -13 -17 -11
-7 7 7 26 19 26 6 0 6 -6 -2 -15z m2267 -37 c-3 -8 -6 -5 -6 6 -1 11 2 17 5
13 3 -3 4 -12 1 -19z m-2675 -240 c-16 -16 -17 -11 -19 80 l-2 97 19 -80 c17
-75 17 -81 2 -97z m2462 -452 c56 -9 83 -18 92 -32 7 -10 19 -25 25 -33 44
-50 61 -239 33 -356 -19 -79 -41 -128 -53 -120 -5 2 -21 -14 -36 -37 -15 -23
-39 -52 -54 -66 -108 -101 -514 -189 -703 -153 -69 14 -147 51 -190 90 -41 36
-34 48 10 16 l37 -27 -35 34 c-19 19 -39 34 -44 34 -5 -1 -11 5 -14 13 -3 9 0
11 8 6 7 -4 4 4 -5 19 -10 15 -20 24 -23 22 -3 -3 1 -12 8 -21 7 -8 8 -15 3
-15 -5 0 -15 12 -21 26 -7 14 -8 23 -2 19 17 -10 12 5 -20 61 -33 57 -60 146
-60 196 0 34 19 107 32 125 18 23 175 91 258 111 359 86 440 100 580 101 52 0
131 -6 174 -13z m-3631 -143 c-7 -2 -19 -2 -25 0 -7 3 -2 5 12 5 14 0 19 -2
13 -5z m102 -18 l60 -14 -55 6 c-30 3 -64 9 -75 14 -32 13 3 10 70 -6z m1660
-6 c166 -15 240 -38 298 -91 27 -25 48 -55 51 -73 6 -27 6 -28 -4 -6 -14 33
-89 99 -125 111 -16 5 -45 11 -64 12 -31 3 -36 -1 -62 -45 -17 -28 -32 -70
-35 -100 l-6 -52 81 3 c67 3 82 1 87 -12 7 -18 -29 -84 -89 -163 l-39 -53 8
-82 c5 -46 8 -88 7 -95 -1 -21 48 11 111 74 75 74 57 38 -21 -42 -53 -54 -69
-63 -154 -92 -127 -44 -165 -52 -299 -63 -180 -14 -353 8 -499 65 -64 25 -72
32 -109 90 -71 111 -86 169 -86 332 l-1 142 35 31 c70 64 134 86 295 101 271
27 398 28 620 8z m-1086 -13 c-2 -2 -22 -11 -44 -20 l-40 -16 24 20 c13 11 32
20 44 20 11 0 18 -2 16 -4z m1769 -139 c12 -13 25 -38 28 -57 7 -30 5 -33 -12
-25 -10 4 -54 11 -96 14 -83 7 -104 18 -94 49 8 25 47 40 107 41 35 1 50 -4
67 -22z m1261 -283 c-34 -36 -45 -29 -12 9 15 18 30 29 32 24 2 -4 -7 -19 -20
-33z m-649 -2438 c0 -2 -8 -10 -17 -17 -16 -13 -17 -12 -4 4 13 16 21 21 21
13z m244 -1122 c3 -8 2 -12 -4 -9 -6 3 -10 10 -10 16 0 14 7 11 14 -7z m-74
-269 c-7 -9 -15 -13 -19 -10 -3 3 1 10 9 15 21 14 24 12 10 -5z m-63 -27 c-3
-7 -5 -2 -5 12 0 14 2 19 5 13 2 -7 2 -19 0 -25z m3 -52 c0 -3 -4 -8 -10 -11
-5 -3 -10 -1 -10 4 0 6 5 11 10 11 6 0 10 -2 10 -4z m-30 -26 c0 -5 -4 -10
-10 -10 -5 0 -10 5 -10 10 0 6 5 10 10 10 6 0 10 -4 10 -10z"/>
<path d="M5000 8425 c-23 -24 -21 -35 3 -15 7 6 21 17 32 25 16 11 17 14 4 15
-8 0 -26 -11 -39 -25z"/>
<path d="M4022 8372 c-34 -14 -60 -27 -57 -30 6 -6 93 26 120 45 28 19 9 15
-63 -15z"/>
<path d="M3505 8300 c-3 -6 1 -7 9 -4 18 7 21 14 7 14 -6 0 -13 -4 -16 -10z"/>
<path d="M3271 8150 c-13 -11 -19 -20 -14 -20 6 0 18 9 28 20 23 25 17 25 -14
0z"/>
<path d="M5240 8109 c0 -5 5 -7 10 -4 6 3 10 8 10 11 0 2 -4 4 -10 4 -5 0 -10
-5 -10 -11z"/>
<path d="M5195 8100 c-3 -6 1 -7 9 -4 18 7 21 14 7 14 -6 0 -13 -4 -16 -10z"/>
<path d="M3814 8015 c-10 -8 -14 -15 -8 -15 6 0 17 7 24 15 16 19 9 19 -16 0z"/>
<path d="M3091 7658 c-17 -27 -9 -33 13 -9 10 10 13 21 9 24 -5 3 -15 -3 -22
-15z"/>
<path d="M2939 7423 c-13 -16 -12 -17 4 -4 9 7 17 15 17 17 0 8 -8 3 -21 -13z"/>
<path d="M2909 7383 c-13 -16 -12 -17 4 -4 9 7 17 15 17 17 0 8 -8 3 -21 -13z"/>
<path d="M2869 7333 l-24 -28 28 24 c25 23 32 31 24 31 -2 0 -14 -12 -28 -27z"/>
<path d="M2836 7283 c-6 -14 -5 -15 5 -6 7 7 10 15 7 18 -3 3 -9 -2 -12 -12z"/>
<path d="M5415 8030 c-3 -5 -1 -10 4 -10 6 0 11 5 11 10 0 6 -2 10 -4 10 -3 0
-8 -4 -11 -10z"/>
<path d="M4057 8053 c-4 -3 -7 -11 -7 -17 0 -6 5 -5 12 2 6 6 9 14 7 17 -3 3
-9 2 -12 -2z"/>
<path d="M4425 7640 c-3 -6 1 -7 9 -4 18 7 21 14 7 14 -6 0 -13 -4 -16 -10z"/>
<path d="M4155 7465 c-16 -14 -35 -25 -42 -25 -6 0 -18 -8 -25 -18 -7 -10 -26
-28 -42 -40 -16 -12 -24 -22 -18 -22 6 0 26 13 44 28 18 16 54 43 81 62 26 18
47 35 47 37 0 9 -18 0 -45 -22z"/>
<path d="M4205 7430 c-3 -6 1 -7 9 -4 18 7 21 14 7 14 -6 0 -13 -4 -16 -10z"/>
<path d="M4135 7380 c-3 -6 1 -7 9 -4 18 7 21 14 7 14 -6 0 -13 -4 -16 -10z"/>
<path d="M3207 7610 c-43 -33 -72 -60 -65 -60 8 0 23 8 34 18 10 9 43 33 71
52 48 32 65 50 46 50 -5 0 -43 -27 -86 -60z"/>
<path d="M5940 7569 c0 -5 5 -7 10 -4 6 3 10 8 10 11 0 2 -4 4 -10 4 -5 0 -10
-5 -10 -11z"/>
<path d="M5900 7419 l-25 -20 33 16 c17 8 32 18 32 20 0 10 -16 4 -40 -16z"/>
<path d="M5405 7275 c-130 -71 -115 -71 22 0 59 30 100 55 92 55 -7 0 -59 -25
-114 -55z"/>
<path d="M5275 7210 c-3 -6 1 -7 9 -4 18 7 21 14 7 14 -6 0 -13 -4 -16 -10z"/>
<path d="M5359 7200 c-19 -10 -42 -26 -50 -36 -11 -13 84 32 110 53 15 11 -30
-1 -60 -17z"/>
<path d="M5065 7160 c-3 -5 1 -10 9 -10 9 0 16 5 16 10 0 6 -4 10 -9 10 -6 0
-13 -4 -16 -10z"/>
<path d="M3899 7472 l-34 -37 35 30 c19 17 37 31 39 33 2 1 2 4 -1 7 -2 3 -20
-12 -39 -33z"/>
<path d="M3032 6755 c0 -16 2 -22 5 -12 2 9 2 23 0 30 -3 6 -5 -1 -5 -18z"/>
<path d="M3022 6700 c0 -14 2 -19 5 -12 2 6 2 18 0 25 -3 6 -5 1 -5 -13z"/>
<path d="M6860 7218 c0 -9 5 -20 10 -23 13 -8 13 5 0 25 -8 13 -10 13 -10 -2z"/>
<path d="M3118 7433 c6 -2 12 -9 12 -15 0 -6 -6 -8 -14 -5 -18 7 -36 -12 -29
-31 4 -9 2 -13 -4 -9 -6 4 -13 1 -16 -7 -7 -17 18 -15 36 3 9 9 9 14 -2 20 -8
5 -9 11 -3 15 6 3 12 0 15 -6 3 -10 10 -8 23 5 17 15 17 19 4 27 -8 5 -19 9
-25 9 -5 0 -4 -3 3 -6z"/>
<path d="M3034 7329 c-3 -6 -1 -16 6 -22 10 -9 11 -9 5 2 -4 8 -2 17 6 22 9 6
10 9 2 9 -6 0 -15 -5 -19 -11z"/>
<path d="M2999 7293 c-13 -16 -12 -17 4 -4 9 7 17 15 17 17 0 8 -8 3 -21 -13z"/>
<path d="M2805 7079 c-4 -6 -4 -13 -1 -16 3 -4 6 -1 6 6 0 7 5 9 12 5 7 -4 8
-3 4 4 -9 15 -13 15 -21 1z"/>
<path d="M2576 7154 c-9 -24 -2 -26 12 -4 7 11 8 20 3 20 -5 0 -12 -7 -15 -16z"/>
<path d="M5931 6824 c0 -11 3 -14 6 -6 3 7 2 16 -1 19 -3 4 -6 -2 -5 -13z"/>
<path d="M5825 6573 c-10 -27 -29 -69 -42 -95 -13 -27 -19 -48 -14 -48 8 0 59
112 76 168 12 41 -2 23 -20 -25z"/>
<path d="M5848 6522 c-16 -30 -26 -57 -25 -59 2 -2 16 22 32 52 15 31 26 57
24 59 -2 2 -16 -21 -31 -52z"/>
<path d="M5241 6544 c0 -11 3 -14 6 -6 3 7 2 16 -1 19 -3 4 -6 -2 -5 -13z"/>
<path d="M6362 6510 c0 -14 2 -19 5 -12 2 6 2 18 0 25 -3 6 -5 1 -5 -13z"/>
<path d="M5746 6403 c-6 -14 -5 -15 5 -6 7 7 10 15 7 18 -3 3 -9 -2 -12 -12z"/>
<path d="M6090 6413 c0 -6 -16 -35 -35 -63 -20 -29 -29 -47 -20 -40 23 19 69
100 61 107 -3 4 -6 2 -6 -4z"/>
<path d="M6179 6273 l-24 -28 28 24 c15 14 27 26 27 28 0 8 -8 1 -31 -24z"/>
<path d="M6120 6229 c-22 -18 -22 -19 -3 -10 12 6 25 16 28 21 9 15 3 12 -25
-11z"/>
<path d="M6055 6200 c-3 -6 1 -7 9 -4 18 7 21 14 7 14 -6 0 -13 -4 -16 -10z"/>
<path d="M5340 6129 l-25 -20 33 16 c17 8 32 18 32 20 0 10 -16 4 -40 -16z"/>
<path d="M6445 6080 c3 -5 1 -10 -4 -10 -24 0 -8 -30 32 -60 23 -18 33 -29 22
-26 -11 4 -42 12 -70 17 -27 5 -59 12 -70 16 -17 5 -18 4 -6 -11 7 -9 20 -16
27 -16 8 0 42 -16 76 -35 80 -44 69 -44 -35 0 -194 81 -349 99 -443 50 -16 -8
-39 -15 -51 -15 -23 0 -108 -63 -142 -105 -11 -15 -21 -41 -21 -58 0 -30 0
-30 21 -11 22 19 22 19 14 -6 l-7 -25 27 25 c19 17 29 21 32 12 3 -9 13 -6 34
9 25 17 29 18 29 4 0 -13 4 -12 23 5 22 22 87 53 94 47 2 -2 -3 -10 -12 -17
-26 -21 -17 -30 18 -16 44 19 107 31 87 17 -8 -5 -12 -12 -10 -14 11 -10 354
24 445 44 55 12 106 22 113 22 6 0 12 3 12 6 -2 32 -128 161 -157 161 -13 0
-23 -5 -23 -10 0 -7 -6 -7 -19 0 -25 13 -44 13 -36 0z m100 -110 c3 -6 -1 -7
-9 -4 -18 7 -21 14 -7 14 6 0 13 -4 16 -10z"/>
<path d="M6451 5861 c-10 -6 1 -8 30 -4 24 3 46 7 48 9 10 9 -65 3 -78 -5z"/>
<path d="M3705 5640 c-8 -13 5 -13 25 0 13 8 13 10 -2 10 -9 0 -20 -4 -23 -10z"/>
<path d="M4878 5481 c-2 -17 0 -36 6 -42 8 -9 7 -10 -4 -4 -10 5 -12 5 -5 -2
6 -6 66 -20 135 -32 69 -12 136 -24 150 -27 l25 -4 -25 11 c-14 7 -28 11 -32
11 -5 -1 -8 4 -9 11 0 13 -162 94 -207 103 -27 5 -30 3 -34 -25z"/>
<path d="M3915 7020 c-3 -5 -1 -10 4 -10 6 0 11 5 11 10 0 6 -2 10 -4 10 -3 0
-8 -4 -11 -10z"/>
<path d="M3785 6910 c-10 -11 -16 -22 -14 -24 2 -2 12 7 22 20 22 29 17 32 -8
4z"/>
<path d="M5336 6823 c-14 -7 -26 -16 -26 -19 0 -2 8 0 19 5 10 6 21 7 25 4 3
-3 6 -1 6 6 0 7 4 10 9 6 5 -3 12 -2 15 3 8 13 -19 10 -48 -5z"/>
<path d="M5260 6780 c-8 -5 -10 -10 -5 -10 6 0 17 5 25 10 8 5 11 10 5 10 -5
0 -17 -5 -25 -10z"/>
<path d="M5210 6760 c-8 -5 -10 -10 -5 -10 6 0 17 5 25 10 8 5 11 10 5 10 -5
0 -17 -5 -25 -10z"/>
<path d="M3645 6910 c-3 -5 -2 -10 4 -10 5 0 13 5 16 10 3 6 2 10 -4 10 -5 0
-13 -4 -16 -10z"/>
<path d="M3459 6963 c-34 -42 -40 -55 -10 -24 17 18 30 35 28 37 -2 2 -10 -4
-18 -13z"/>
<path d="M2750 6820 c-9 -6 -10 -10 -3 -10 6 0 15 5 18 10 8 12 4 12 -15 0z"/>
<path d="M5431 6604 c0 -11 3 -14 6 -6 3 7 2 16 -1 19 -3 4 -6 -2 -5 -13z"/>
<path d="M4055 6641 c-3 -5 -1 -12 5 -16 5 -3 10 1 10 9 0 18 -6 21 -15 7z"/>
<path d="M6315 5420 c22 -5 56 -12 76 -15 19 -3 77 -30 128 -60 111 -66 148
-65 76 1 -57 54 -120 75 -235 80 -69 2 -77 1 -45 -6z"/>
<path d="M5948 5404 c-2 -1 -16 -5 -31 -8 -15 -3 -41 -11 -57 -20 -17 -8 -28
-11 -25 -6 3 5 -13 1 -34 -7 -37 -14 -41 -19 -49 -67 -7 -40 -5 -61 9 -100 10
-27 16 -53 13 -58 -3 -4 -1 -8 5 -8 5 0 11 -8 13 -17 3 -13 9 -9 20 17 9 19
33 53 53 75 l38 40 -37 -67 c-21 -38 -36 -72 -34 -76 3 -8 132 29 144 41 16
16 -11 27 -53 23 -38 -5 -44 -3 -41 12 2 12 13 17 35 17 25 0 31 4 31 22 0 22
18 53 31 53 4 0 12 -13 18 -29 9 -24 21 -33 64 -45 29 -9 62 -16 73 -16 77 0
152 57 163 123 4 30 9 37 22 32 9 -4 30 -9 47 -12 17 -3 36 -13 42 -23 10 -16
7 -23 -18 -43 l-29 -25 82 4 c119 7 167 14 167 25 0 11 -60 48 -110 67 -72 28
-177 61 -225 71 -44 9 -319 14 -327 5z m270 -86 c-6 -18 -22 -20 -43 -3 -19
14 -18 14 13 15 22 0 32 -4 30 -12z"/>
<path d="M6821 5134 c0 -11 3 -14 6 -6 3 7 2 16 -1 19 -3 4 -6 -2 -5 -13z"/>
<path d="M5919 5093 c-15 -2 -36 -14 -48 -27 -20 -22 -20 -23 -4 -38 49 -43
345 -67 423 -34 l32 13 -32 7 c-18 3 -51 6 -74 6 -48 0 -96 16 -149 49 -38 23
-97 33 -148 24z"/>
<path d="M6805 5078 c-23 -65 -33 -98 -29 -98 5 0 21 39 34 83 8 26 4 39 -5
15z"/>
<path d="M5847 4769 c7 -7 15 -10 18 -7 3 3 -2 9 -12 12 -14 6 -15 5 -6 -5z"/>
<path d="M5906 4751 c46 -20 181 -33 279 -27 174 11 161 21 -28 21 -100 0
-202 3 -227 8 -29 4 -38 4 -24 -2z"/>
<path d="M6368 4753 c6 -2 18 -2 25 0 6 3 1 5 -13 5 -14 0 -19 -2 -12 -5z"/>
<path d="M4260 5250 c-30 -4 -83 -14 -116 -23 -34 -9 -97 -19 -140 -23 -76 -6
-121 -25 -108 -45 3 -5 0 -9 -5 -9 -6 0 -11 -9 -11 -20 0 -11 -4 -20 -10 -20
-11 0 -14 -108 -4 -134 5 -14 9 -14 33 2 72 50 157 85 204 86 43 0 47 1 31 13
-10 7 -25 13 -33 13 -10 0 -3 12 19 35 l34 35 27 -48 c72 -126 257 -96 285 46
4 18 11 32 17 32 32 0 167 -104 167 -130 0 -13 10 -20 38 -24 20 -4 49 -9 64
-12 27 -5 28 -5 15 25 -7 17 -34 45 -62 63 -54 36 -45 52 11 18 20 -11 38 -19
40 -17 8 8 -52 67 -106 104 l-55 38 -140 1 c-77 1 -165 -2 -195 -6z m300 -31
c54 -28 5 -23 -55 6 -46 23 -47 24 -15 19 19 -4 51 -15 70 -25z m-140 -44 c0
-28 -17 -32 -45 -12 -23 17 -12 37 21 37 19 0 24 -5 24 -25z m-140 -15 c0 -5
-7 -10 -15 -10 -8 0 -15 5 -15 10 0 6 7 10 15 10 8 0 15 -4 15 -10z"/>
<path d="M3873 8903 c32 -2 81 -2 110 0 29 2 3 3 -58 3 -60 0 -84 -1 -52 -3z"/>
<path d="M3642 8874 c-41 -14 -100 -41 -132 -60 -32 -19 -62 -34 -65 -34 -16
0 -172 -140 -200 -178 -16 -23 -34 -42 -38 -42 -12 0 -122 -71 -125 -82 -2 -4
-17 -15 -34 -24 -16 -8 -28 -18 -25 -20 6 -7 42 14 72 41 13 11 50 34 83 50
34 17 61 34 62 39 0 14 73 106 83 106 6 0 35 21 65 47 83 71 202 129 337 164
63 16 66 18 30 18 -22 0 -73 -12 -113 -25z"/>
<path d="M4838 8763 c7 -3 16 -2 19 1 4 3 -2 6 -13 5 -11 0 -14 -3 -6 -6z"/>
<path d="M6090 8666 c0 -2 19 -15 43 -30 l42 -27 -33 30 c-28 27 -52 39 -52
27z"/>
<path d="M6180 8595 c0 -5 5 -17 10 -25 5 -8 10 -10 10 -5 0 6 -5 17 -10 25
-5 8 -10 11 -10 5z"/>
<path d="M2905 8330 c-3 -6 1 -7 9 -4 18 7 21 14 7 14 -6 0 -13 -4 -16 -10z"/>
<path d="M6401 8316 c3 -3 29 -10 59 -16 53 -10 80 -21 148 -60 l37 -22 -25
23 c-36 31 -117 66 -175 74 -27 4 -47 4 -44 1z"/>
<path d="M6680 8060 c46 -28 85 -48 87 -47 6 7 -137 97 -153 97 -10 0 20 -23
66 -50z"/>
<path d="M6852 7857 c48 -47 90 -101 116 -149 25 -47 31 -34 6 15 -19 37 -88
124 -118 149 -36 30 -39 19 -4 -15z"/>
<path d="M2296 7763 c-6 -14 -5 -15 5 -6 7 7 10 15 7 18 -3 3 -9 -2 -12 -12z"/>
<path d="M6840 7755 c19 -14 36 -25 39 -25 10 1 -53 50 -63 50 -6 0 5 -11 24
-25z"/>
<path d="M6932 7669 c37 -36 68 -77 89 -121 38 -80 50 -84 16 -7 -13 30 -27
67 -31 83 -5 19 -10 26 -15 18 -5 -9 -14 -5 -32 14 -13 14 -37 35 -54 46 -16
11 -4 -4 27 -33z"/>
<path d="M6830 7639 c14 -5 55 -41 93 -80 37 -39 67 -66 67 -62 0 12 -113 128
-138 142 -11 6 -27 11 -34 10 -7 0 -2 -5 12 -10z"/>
<path d="M2387 7593 c-4 -3 -7 -11 -7 -17 0 -6 5 -5 12 2 6 6 9 14 7 17 -3 3
-9 2 -12 -2z"/>
<path d="M6999 7463 c6 -10 22 -31 36 -48 20 -23 19 -18 -6 18 -32 46 -49 63
-30 30z"/>
<path d="M2093 6865 c0 -33 2 -45 4 -27 2 18 2 45 0 60 -2 15 -4 0 -4 -33z"/>
<path d="M2352 5238 c-40 -51 -47 -83 -47 -213 0 -117 3 -138 28 -209 33 -92
77 -240 77 -259 0 -38 114 -228 123 -205 4 10 6 10 6 1 1 -7 6 -13 13 -13 6 0
8 3 5 7 -4 3 -2 12 5 20 9 11 2 23 -38 57 -27 24 -63 68 -78 97 -30 54 -35 92
-47 384 -3 83 11 168 34 202 19 27 75 71 80 61 1 -1 19 -28 40 -59 20 -30 37
-60 37 -66 0 -6 6 -14 13 -17 9 -5 9 -7 -1 -12 -11 -5 -42 -55 -42 -69 0 -9
84 -5 100 5 12 8 13 13 2 27 -7 10 -18 31 -25 46 -28 58 -121 173 -162 200
-45 29 -105 36 -123 15z"/>
<path d="M2675 4873 c-36 -9 -132 -93 -150 -131 -10 -20 -24 -50 -31 -65 -39
-80 16 -159 160 -232 36 -18 60 -39 73 -62 21 -39 45 -58 90 -67 25 -6 34 -3
42 12 11 21 -5 92 -21 92 -5 0 -26 28 -48 62 -45 69 -52 122 -25 199 15 41 14
46 -5 90 -11 26 -20 56 -20 66 0 21 -19 44 -34 42 -6 -1 -20 -4 -31 -6z"/>
<path d="M2290 4777 c0 -31 82 -285 106 -326 l15 -26 -5 30 c-8 53 -116 351
-116 322z"/>
<path d="M2414 4394 c4 -16 26 -60 48 -99 23 -38 55 -94 72 -123 17 -30 42
-67 56 -82 14 -16 37 -44 52 -63 40 -51 128 -90 218 -97 70 -5 76 -7 88 -33 7
-15 17 -49 22 -75 4 -26 30 -135 58 -242 74 -288 93 -399 99 -596 3 -94 3
-192 -1 -217 -7 -46 -8 -47 -42 -47 -112 0 -327 -79 -358 -132 -18 -29 -20
-76 -6 -128 5 -19 13 -52 18 -72 10 -37 16 -52 78 -173 45 -87 68 -139 66
-148 -1 -4 2 -6 6 -5 5 2 44 -42 86 -97 43 -55 84 -104 90 -110 7 -5 17 -17
22 -27 5 -9 32 -41 59 -71 28 -30 73 -81 100 -112 28 -32 76 -86 108 -120 31
-34 57 -65 57 -69 0 -15 161 -166 171 -160 6 4 6 11 -2 20 -6 7 -8 21 -5 30 4
10 -3 23 -18 35 -14 11 -28 30 -31 42 -9 29 -86 108 -98 100 -6 -4 -7 -1 -2 7
4 7 4 15 -1 19 -5 3 -16 18 -24 32 -15 26 -81 127 -149 227 -35 51 -76 120
-103 172 -7 14 -22 41 -33 60 -31 51 -78 206 -72 238 3 15 19 77 37 137 60
212 71 268 77 400 6 150 -7 293 -43 462 -14 65 -29 141 -34 168 -11 67 -84
356 -108 428 -15 43 -16 57 -6 57 20 0 52 -47 96 -140 22 -47 60 -125 83 -175
24 -49 53 -112 65 -139 24 -57 37 -57 16 0 -17 48 -29 84 -51 154 -10 30 -35
93 -56 138 -22 46 -39 90 -39 96 0 7 -13 39 -28 72 -16 32 -35 79 -43 103 -8
25 -18 46 -24 47 -5 2 -23 -23 -38 -55 -18 -38 -36 -61 -50 -65 -43 -11 -123
-5 -162 13 -45 21 -114 90 -165 166 -19 28 -37 52 -42 53 -4 2 -8 10 -8 18 0
8 -20 49 -45 92 -25 42 -45 82 -45 89 0 6 -5 15 -11 19 -9 5 -10 -1 -5 -22z
m696 -1744 c0 -5 -12 -10 -27 -10 -16 0 -53 -2 -83 -5 l-55 -4 50 13 c61 17
115 20 115 6z m-215 -34 c-22 -7 -55 -20 -73 -30 -18 -9 -41 -16 -50 -14 -22
5 106 57 138 57 19 0 15 -3 -15 -13z"/>
<path d="M4859 4332 c-26 -26 -57 -67 -69 -92 -28 -55 -50 -175 -43 -230 9
-64 66 -97 198 -116 28 -3 83 -20 123 -35 42 -17 92 -29 118 -29 73 0 200 50
239 94 12 14 78 46 94 46 19 0 61 23 61 34 0 18 -37 45 -88 65 -26 11 -69 31
-95 46 -43 24 -56 27 -110 22 -34 -3 -63 -10 -65 -16 -2 -6 -15 -11 -28 -11
-39 0 -104 -37 -104 -60 0 -34 -36 -33 -107 5 -85 45 -102 66 -103 127 0 50
12 87 42 127 24 31 24 71 1 71 -10 0 -39 -21 -64 -48z m224 -329 c-7 -2 -19
-2 -25 0 -7 3 -2 5 12 5 14 0 19 -2 13 -5z"/>
<path d="M5804 4146 c-18 -8 -36 -20 -40 -28 -5 -8 -24 -25 -43 -37 -37 -27
-32 -34 32 -45 39 -7 45 -16 25 -38 -20 -21 -21 -48 -2 -48 58 0 144 48 182
102 12 17 9 24 -34 63 -51 48 -70 52 -120 31z"/>
<path d="M5524 3824 c17 -96 47 -154 80 -154 16 0 2 62 -27 119 -40 78 -63 93
-53 35z"/>
<path d="M4678 3585 c-30 -17 -45 -57 -54 -145 -7 -75 14 -140 52 -160 16 -8
31 -17 34 -20 3 -3 11 -6 18 -8 7 -1 25 -14 40 -28 15 -14 40 -28 56 -31 37
-8 101 -74 116 -119 6 -19 16 -34 21 -34 5 0 9 -9 9 -20 0 -29 23 -71 54 -97
78 -68 191 -88 448 -80 188 5 206 11 263 87 17 21 36 39 43 40 14 0 17 20 3
20 -6 0 -13 -4 -16 -10 -3 -5 -23 -10 -44 -10 -22 0 -76 -7 -121 -16 -96 -18
-247 -15 -300 7 -38 15 -82 41 -148 88 -23 17 -44 31 -46 31 -2 0 -17 12 -34
26 -16 15 -57 39 -91 54 -77 34 -88 44 -71 65 17 20 149 20 278 -1 70 -12 133
-15 227 -11 132 6 178 14 250 46 41 18 89 33 162 51 24 6 47 19 52 29 6 10 25
21 43 25 18 3 57 16 87 28 45 18 58 19 85 10 125 -46 216 43 140 136 -32 39
-44 40 -72 7 -26 -29 -38 -30 -108 -8 -46 14 -62 15 -121 4 -37 -7 -100 -17
-140 -22 -39 -5 -91 -15 -115 -23 -88 -30 -114 -30 -171 -3 -28 14 -59 28 -67
31 -8 3 -31 16 -50 28 -52 31 -143 30 -247 -5 -45 -15 -89 -27 -97 -27 -9 0
-64 -18 -122 -40 -119 -45 -149 -49 -163 -21 -6 10 -9 20 -6 22 2 2 5 24 8 47
6 67 -26 88 -85 57z m1156 -137 c7 -13 4 -29 -14 -68 l-24 -52 -47 4 c-42 4
-48 2 -58 -19 -22 -48 -120 -69 -162 -34 -22 18 -23 18 -40 -3 -15 -18 -28
-21 -89 -21 -66 0 -74 2 -96 28 -18 22 -24 40 -24 78 l0 51 123 -3 c110 -2
130 0 202 25 43 14 84 25 90 23 5 -2 19 -1 30 4 33 13 97 6 109 -13z m84 -10
c-2 -18 -11 -24 -35 -26 -37 -4 -46 19 -15 37 31 19 54 13 50 -11z m-667 -28
c29 -16 27 -93 -3 -114 -45 -32 -119 -13 -144 36 l-15 29 -17 -21 c-11 -13
-30 -22 -51 -23 -30 -2 -38 4 -62 38 -15 22 -25 43 -23 47 3 5 42 8 87 9 45 1
93 5 107 9 30 9 94 4 121 -10z"/>
<path d="M2915 2726 c-71 -17 -155 -58 -191 -92 -37 -35 -94 -117 -94 -136 0
-8 -14 -36 -32 -64 -31 -49 -47 -78 -168 -309 -34 -66 -78 -149 -97 -185 -30
-58 -33 -70 -27 -116 6 -49 4 -52 -24 -73 -17 -11 -36 -21 -44 -21 -8 0 -30
-12 -49 -26 -19 -14 -74 -50 -124 -81 -103 -63 -182 -115 -207 -137 -10 -9
-62 -46 -115 -82 -54 -37 -109 -77 -124 -90 -14 -13 -30 -24 -36 -24 -6 0 -31
-15 -55 -33 -24 -18 -85 -61 -137 -96 -52 -35 -103 -72 -115 -82 -11 -11 -25
-19 -31 -19 -7 0 -32 -15 -56 -32 -63 -46 -109 -78 -114 -78 -2 0 -34 -21 -71
-48 -36 -26 -83 -56 -103 -68 -20 -11 -61 -39 -91 -62 -30 -23 -58 -42 -62
-42 -4 0 -35 -21 -69 -48 -34 -26 -81 -58 -105 -72 -24 -14 -60 -38 -80 -55
-20 -16 -48 -37 -63 -45 -26 -15 -245 -183 -268 -206 -7 -7 -18 -14 -25 -16
-6 -2 -8 -10 -4 -16 8 -14 59 20 126 81 19 18 46 38 60 45 14 7 47 33 75 57
27 25 55 45 62 45 7 0 27 13 45 28 18 16 76 57 128 93 52 35 98 68 102 74 4 5
27 21 51 35 65 37 275 179 282 190 4 6 24 19 46 29 22 11 54 31 72 46 28 24
79 58 267 180 48 32 130 90 232 165 34 25 77 54 96 66 18 11 52 36 74 55 22
19 53 41 68 49 16 8 58 36 95 63 36 26 69 47 73 47 4 0 32 16 62 36 81 53 94
59 87 41 -4 -11 -2 -14 9 -10 7 3 14 14 14 25 0 15 5 19 20 15 11 -3 18 -2 15
3 -3 4 2 11 11 14 13 5 14 -1 8 -42 -4 -26 -8 -85 -8 -132 l-1 -84 -80 -47
c-77 -46 -90 -59 -64 -68 6 -2 9 1 6 6 -4 6 33 28 81 51 96 45 149 62 138 43
-5 -7 5 -11 31 -12 34 0 41 -5 71 -49 17 -28 32 -55 32 -61 0 -6 13 -29 29
-52 55 -80 94 -152 93 -170 0 -10 4 -15 10 -11 7 4 8 2 4 -5 -5 -7 4 -23 22
-39 16 -15 40 -45 52 -67 13 -22 40 -60 60 -85 21 -25 47 -63 59 -85 12 -22
35 -60 51 -85 16 -25 43 -71 60 -103 17 -32 51 -91 76 -130 24 -39 44 -76 44
-82 1 -5 21 -41 45 -80 25 -38 54 -89 66 -112 19 -38 59 -85 59 -69 0 3 -10
23 -23 44 -13 20 -35 60 -49 87 -14 28 -42 74 -62 104 -20 29 -36 57 -36 61 0
14 -79 147 -95 160 -8 7 -15 20 -15 29 0 16 -72 138 -101 172 -8 8 -23 33 -34
54 -11 22 -28 48 -38 58 -10 10 -28 37 -41 60 -22 42 -96 158 -106 167 -4 3
-18 29 -33 57 -15 29 -35 62 -45 73 -9 11 -38 60 -63 108 -25 48 -55 105 -67
127 -86 159 -131 320 -102 365 8 12 10 11 10 -6 0 -24 39 -145 51 -159 5 -5 9
-16 9 -25 0 -19 100 -203 107 -197 2 3 -16 43 -40 89 -45 83 -117 274 -117
308 0 36 74 198 132 289 15 25 28 50 28 57 0 13 62 123 92 163 10 13 18 32 18
41 0 20 58 109 98 153 48 51 174 101 296 116 l61 8 -60 1 c-33 0 -82 -5 -110
-12z m-555 -1046 c0 -8 7 -28 16 -45 9 -16 22 -47 30 -67 12 -35 11 -39 -6
-48 -28 -15 -67 -12 -74 6 -11 29 -7 169 6 182 13 13 28 -1 28 -28z"/>
<path d="M2710 2320 c6 -11 13 -20 16 -20 2 0 0 9 -6 20 -6 11 -13 20 -16 20
-2 0 0 -9 6 -20z"/>
<path d="M2740 2266 c0 -12 103 -156 108 -151 3 2 -13 28 -35 57 -22 29 -47
64 -56 78 -10 13 -17 21 -17 16z"/>
<path d="M2850 2091 c0 -5 5 -13 10 -16 6 -3 10 -2 10 4 0 5 -4 13 -10 16 -5
3 -10 2 -10 -4z"/>
<path d="M6430 1726 c0 -2 69 -65 153 -139 83 -74 210 -195 282 -268 71 -74
114 -114 95 -89 -32 40 -327 339 -396 401 -17 14 -40 31 -52 38 -12 7 -20 16
-17 21 3 5 -9 16 -26 24 -34 17 -39 18 -39 12z"/>
<path d="M6627 1705 c29 -13 103 -40 165 -61 62 -20 172 -59 243 -85 72 -26
166 -59 210 -74 44 -15 109 -39 145 -52 36 -14 81 -28 100 -33 19 -4 80 -27
135 -50 55 -23 132 -53 172 -66 39 -13 111 -44 159 -69 48 -25 92 -45 98 -45
6 0 47 -22 91 -50 44 -27 98 -58 120 -69 22 -11 54 -32 70 -47 17 -14 47 -35
67 -45 26 -13 39 -28 43 -47 3 -15 10 -43 16 -62 42 -157 60 -301 67 -565 6
-236 7 -244 14 -140 15 212 -3 449 -47 625 -41 163 -39 148 -20 125 9 -11 24
-29 34 -41 32 -37 161 -296 161 -324 0 -9 12 -50 26 -91 45 -130 62 -206 90
-398 3 -18 8 -31 11 -28 7 7 -15 175 -34 262 -8 39 -29 108 -45 155 -16 47
-36 108 -44 135 -20 70 -111 249 -160 315 -24 31 -71 75 -108 100 -36 25 -66
48 -66 51 0 4 -15 13 -32 20 -18 7 -58 29 -88 50 -65 43 -332 178 -375 189
-16 5 -86 30 -155 57 -69 28 -174 67 -235 87 -60 21 -128 45 -150 53 -22 8
-63 21 -91 28 -28 8 -101 34 -163 59 -61 25 -119 46 -127 46 -18 0 -262 83
-293 99 -11 6 -28 11 -38 10 -10 0 5 -11 34 -24z"/>
<path d="M6226 1677 c3 -10 9 -15 12 -12 3 3 0 11 -7 18 -10 9 -11 8 -5 -6z"/>
<path d="M2194 1658 l-19 -23 23 19 c21 18 27 26 19 26 -2 0 -12 -10 -23 -22z"/>
<path d="M6301 1540 c14 -31 19 -36 19 -24 0 6 -7 19 -16 30 -14 18 -14 18 -3
-6z"/>
<path d="M7025 1525 c17 -8 37 -14 45 -14 8 0 -1 7 -20 14 -46 18 -64 17 -25
0z"/>
<path d="M7100 1506 c0 -7 240 -106 256 -106 8 0 74 -24 147 -54 148 -60 228
-88 234 -82 2 2 -11 9 -29 16 -18 7 -91 37 -161 67 -71 29 -135 53 -143 53 -9
0 -36 9 -62 20 -68 28 -231 90 -237 90 -3 0 -5 -2 -5 -4z"/>
<path d="M2520 1491 c0 -13 38 -81 51 -91 3 -3 16 -25 28 -48 12 -24 25 -42
27 -39 6 6 -19 57 -46 97 -10 14 -27 41 -39 60 -11 19 -21 29 -21 21z"/>
<path d="M6320 1496 c0 -12 73 -157 77 -152 2 2 -15 39 -37 82 -22 43 -40 75
-40 70z"/>
<path d="M2305 1405 c-49 -24 -101 -54 -114 -66 -13 -12 -49 -35 -79 -51 -42
-21 -58 -25 -64 -16 -5 10 -8 8 -8 -4 0 -11 -13 -21 -38 -29 -36 -10 -38 -13
-39 -52 -1 -42 0 -42 9 -11 8 23 22 36 56 52 56 26 132 68 149 81 24 21 121
80 154 94 31 13 81 47 69 46 -3 0 -45 -20 -95 -44z"/>
<path d="M3410 1335 c0 -4 21 -31 48 -60 26 -28 68 -76 94 -106 97 -112 187
-204 188 -190 0 8 -24 37 -52 66 -29 29 -78 80 -108 114 -93 105 -170 184
-170 176z"/>
<path d="M3583 1330 c2 -8 12 -16 23 -17 13 -2 15 -1 4 4 -8 3 -19 11 -23 17
-6 7 -7 6 -4 -4z"/>
<path d="M6400 1321 c0 -5 5 -13 10 -16 6 -3 10 -2 10 4 0 5 -4 13 -10 16 -5
3 -10 2 -10 -4z"/>
<path d="M2630 1296 c0 -9 62 -109 87 -139 14 -17 23 -23 23 -14 0 8 -7 20
-15 27 -8 7 -29 36 -46 66 -27 48 -49 75 -49 60z"/>
<path d="M3586 1292 c-7 -12 210 -232 229 -232 6 0 27 -15 48 -32 46 -39 123
-86 113 -69 -4 6 -24 22 -44 35 -21 13 -47 33 -59 45 -12 12 -26 21 -32 21 -5
0 -39 29 -75 65 -36 36 -71 65 -77 65 -5 0 -8 4 -4 9 3 5 -4 12 -15 16 -11 3
-19 10 -17 14 2 7 -48 71 -57 71 -3 0 -7 -4 -10 -8z"/>
<path d="M1700 1273 c-14 -9 -40 -28 -59 -42 -19 -14 -54 -37 -77 -51 -23 -14
-71 -45 -106 -70 -34 -25 -76 -51 -91 -59 -15 -8 -45 -30 -66 -48 -21 -18 -57
-43 -79 -55 -53 -30 -245 -162 -265 -183 -9 -8 -31 -22 -49 -30 -18 -8 -46
-25 -62 -39 -16 -14 -73 -55 -127 -92 -55 -36 -99 -70 -99 -74 0 -4 -19 -17
-42 -28 -24 -11 -63 -39 -87 -61 -24 -23 -47 -41 -52 -41 -19 0 -242 -200
-283 -253 -48 -63 -27 -49 66 42 51 50 98 91 103 91 6 0 29 18 50 41 22 22 56
50 75 62 19 12 58 39 86 62 53 42 170 125 260 185 139 92 222 150 258 179 21
17 43 31 48 31 5 0 39 23 75 51 37 28 74 54 83 57 13 5 127 88 140 102 3 3 17
11 31 19 15 7 51 33 80 57 30 24 57 44 62 44 4 0 31 19 60 43 29 23 63 50 77
59 14 9 23 17 20 17 -3 1 -17 -6 -30 -16z"/>
<path d="M6436 1247 c3 -10 9 -15 12 -12 3 3 0 11 -7 18 -10 9 -11 8 -5 -6z"/>
<path d="M1924 1189 c-19 -22 -19 -22 3 -10 24 12 39 31 25 31 -5 0 -17 -10
-28 -21z"/>
<path d="M1837 1119 c-28 -29 -41 -44 -27 -35 28 18 96 86 86 86 -3 0 -30 -23
-59 -51z"/>
<path d="M2344 1135 c49 -130 65 -168 65 -152 1 9 -13 52 -31 95 -33 81 -59
125 -34 57z"/>
<path d="M1951 1140 c-8 -29 -41 -215 -40 -228 0 -9 12 30 25 88 14 58 23 114
21 125 -3 11 -5 18 -6 15z"/>
<path d="M6501 1138 c-1 -4 10 -31 23 -60 13 -29 29 -66 35 -82 7 -16 14 -26
18 -23 3 4 -13 44 -35 89 -22 46 -41 80 -41 76z"/>
<path d="M7055 1120 c10 -11 20 -20 23 -20 3 0 -3 9 -13 20 -10 11 -20 20 -23
20 -3 0 3 -9 13 -20z"/>
<path d="M2054 980 c0 -80 2 -112 3 -72 2 39 2 105 0 145 -1 39 -3 7 -3 -73z"/>
<path d="M2740 1115 c0 -5 12 -23 26 -40 14 -16 21 -21 15 -10 -14 30 -40 61
-41 50z"/>
<path d="M1705 1024 c-22 -20 -75 -60 -117 -90 -43 -30 -78 -58 -78 -62 0 -5
-17 -18 -37 -30 -21 -12 -58 -42 -82 -67 -24 -25 -49 -45 -56 -45 -6 0 -24
-14 -41 -31 -16 -17 -44 -40 -62 -51 -18 -11 -31 -23 -28 -25 7 -7 69 32 108
69 18 17 45 35 61 40 15 6 27 14 27 18 0 8 191 165 275 226 40 29 85 71 85 80
0 11 -18 0 -55 -32z"/>
<path d="M6325 1021 c-3 -5 -1 -12 5 -16 5 -3 10 1 10 9 0 18 -6 21 -15 7z"/>
<path d="M3787 959 c-10 -11 -27 -36 -38 -57 -11 -20 -28 -44 -37 -52 -18 -15
-58 -76 -80 -120 -7 -14 -33 -53 -58 -85 -24 -33 -44 -64 -44 -69 0 -4 -19
-36 -43 -70 -24 -33 -58 -86 -77 -116 -18 -30 -40 -66 -48 -80 -23 -37 1 -11
34 36 16 23 49 68 74 100 25 33 59 80 75 106 17 27 33 48 37 48 9 0 78 -81 78
-92 0 -4 6 -8 14 -8 8 0 36 -25 63 -55 28 -30 53 -55 57 -55 11 0 286 -277
286 -287 0 -11 110 -107 115 -101 7 7 -99 120 -331 352 -237 237 -290 300
-182 219 35 -26 65 -50 68 -53 3 -3 21 -16 41 -28 20 -12 47 -32 60 -44 42
-40 75 -63 41 -29 -18 18 -31 35 -29 38 6 6 104 -44 112 -57 3 -5 11 -10 16
-10 15 0 -40 44 -81 65 -19 9 -43 24 -52 32 -9 8 -22 13 -29 11 -7 -2 -20 3
-30 11 -9 9 -44 36 -78 60 -33 24 -61 45 -61 47 0 2 18 -3 39 -11 22 -7 43
-10 47 -7 4 4 4 -2 0 -12 -5 -16 -4 -17 9 -6 12 10 21 10 46 0 26 -11 32 -11
39 1 7 11 21 7 70 -20 34 -18 64 -31 66 -28 3 2 5 20 6 40 l1 35 41 -15 c34
-12 46 -13 71 -2 17 7 36 11 44 10 7 -1 10 2 6 8 -3 6 -4 11 -1 11 3 0 13 -12
21 -27 9 -16 14 -20 11 -10 -3 11 -2 15 4 12 6 -3 10 -13 10 -21 0 -8 3 -13 8
-11 4 3 8 -10 9 -29 3 -51 6 -64 15 -64 4 0 26 -13 49 -29 24 -18 64 -34 97
-41 31 -6 86 -18 121 -26 99 -24 91 1 -10 30 l-56 16 2 52 c2 37 1 40 -2 11
-3 -30 -9 -44 -23 -48 -22 -7 -72 14 -120 52 -19 15 -29 21 -22 13 6 -8 12
-19 12 -24 -1 -21 -30 28 -30 50 0 61 127 87 170 35 8 -9 119 -61 131 -61 6 0
7 4 4 10 -4 7 3 7 19 0 14 -5 26 -6 26 -1 0 17 -137 95 -195 111 -30 8 -179
90 -212 116 -15 12 -25 25 -21 29 4 4 19 -2 34 -14 15 -11 32 -21 39 -21 7 0
41 -13 76 -29 143 -64 190 -82 202 -78 7 3 0 10 -16 16 -25 10 -51 21 -162 71
-22 9 -55 23 -73 30 -19 7 -39 18 -45 24 -20 19 -113 76 -125 76 -5 0 -12 3
-14 8 -6 14 -143 99 -186 116 -54 21 -82 19 -105 -5z m243 -166 c14 -9 27 -18
29 -20 3 -2 -4 -10 -15 -18 -17 -13 -16 -13 13 -3 17 7 29 16 26 21 -3 5 4 4
16 -2 25 -14 28 -23 4 -14 -16 6 -16 5 -4 -10 11 -14 16 -15 29 -5 13 10 14
10 8 1 -4 -7 -2 -13 3 -13 14 0 14 -65 1 -91 -9 -15 -22 -19 -68 -19 -32 0
-63 5 -70 12 -16 16 -16 72 0 62 7 -4 8 -3 4 5 -4 6 -4 18 1 24 4 7 0 4 -9 -6
-10 -11 -18 -33 -18 -49 l0 -31 -21 27 c-25 32 -35 95 -20 125 14 26 56 28 91
4z m235 -203 c-3 -5 -12 -10 -18 -10 -7 0 -6 4 3 10 19 12 23 12 15 0z m-405
-122 c0 -6 -6 -5 -15 2 -8 7 -15 14 -15 16 0 2 7 1 15 -2 8 -4 15 -11 15 -16z"/>
<path d="M2410 949 c0 -8 14 -50 31 -94 17 -44 50 -138 74 -210 48 -143 101
-284 109 -293 14 -13 4 29 -25 103 -17 44 -42 114 -56 155 -41 118 -125 345
-129 349 -2 2 -4 -2 -4 -10z"/>
<path d="M3990 946 c0 -2 23 -21 52 -43 101 -75 158 -112 158 -103 0 5 -12 17
-27 27 -16 9 -58 41 -94 70 -57 46 -89 63 -89 49z"/>
<path d="M6690 938 c19 -6 92 -31 163 -56 70 -24 130 -43 132 -40 11 11 -265
108 -302 107 -26 -1 -26 -2 7 -11z"/>
<path d="M6527 885 c-9 -19 -24 -38 -32 -41 -9 -4 -27 -27 -42 -53 -64 -112
-132 -183 -253 -265 -44 -31 -49 -36 -25 -30 53 12 203 138 245 204 52 81 47
78 67 50 10 -14 18 -29 18 -35 1 -5 8 -21 16 -35 60 -97 79 -123 79 -112 0 7
5 10 11 7 6 -4 8 -14 5 -22 -3 -8 -2 -12 3 -9 4 3 21 -18 36 -47 34 -63 59
-96 86 -115 21 -14 21 -14 15 44 -9 76 -28 147 -74 262 -32 84 -41 97 -82 125
l-45 31 51 -57 c28 -31 54 -69 57 -84 3 -15 19 -66 35 -113 31 -86 54 -190 43
-190 -8 0 -81 117 -81 131 0 5 -24 54 -52 107 -29 53 -63 121 -75 150 l-22 54
20 28 c12 15 20 33 17 40 -2 6 -11 -5 -21 -25z m-9 -112 c6 -20 10 -39 7 -41
-5 -5 -35 53 -35 68 0 24 17 7 28 -27z m61 -143 c11 -24 11 -24 -3 -6 -9 11
-16 24 -16 30 0 12 5 7 19 -24z"/>
<path d="M6161 780 c-75 -74 -81 -100 -8 -35 45 41 87 95 73 95 -3 0 -32 -27
-65 -60z"/>
<path d="M6940 818 c68 -30 170 -69 215 -81 22 -5 99 -27 170 -47 163 -47 175
-50 175 -41 0 5 -10 16 -22 27 -12 10 -18 13 -13 5 6 -11 4 -13 -11 -8 -89 27
-137 41 -185 52 -70 16 -125 33 -166 51 -17 8 -36 14 -42 14 -6 0 -36 11 -67
25 -31 14 -66 25 -78 24 -14 0 -7 -7 24 -21z"/>
<path d="M7001 836 c8 -8 170 -66 182 -66 14 1 -160 70 -176 70 -6 0 -8 -2 -6
-4z"/>
<path d="M6340 733 l-25 -26 33 22 c31 22 39 32 25 30 -5 0 -19 -12 -33 -26z"/>
<path d="M2997 698 c55 -88 76 -118 80 -114 4 4 -95 156 -102 156 -3 0 7 -19
22 -42z"/>
<path d="M1183 675 c-40 -30 -77 -55 -83 -55 -5 0 -27 -15 -47 -33 -21 -19
-74 -59 -118 -90 -44 -30 -91 -67 -104 -81 -14 -14 -30 -26 -37 -26 -8 0 -36
-20 -64 -45 -28 -25 -61 -51 -73 -59 -12 -9 -47 -38 -77 -66 -30 -27 -59 -50
-65 -50 -7 0 -17 -10 -24 -22 -7 -13 -32 -39 -56 -58 -24 -19 -44 -39 -44 -43
-1 -13 80 47 118 87 19 20 40 36 46 36 6 0 27 16 46 36 18 20 54 50 79 67 25
17 50 36 55 43 13 16 209 164 251 189 18 11 52 37 76 58 24 21 56 46 73 54 16
9 41 28 55 42 14 15 39 36 55 48 17 13 25 23 20 23 -6 0 -43 -25 -82 -55z"/>
<path d="M6077 643 c-21 -66 -27 -114 -18 -138 6 -14 9 -2 10 37 0 32 8 76 17
98 9 22 14 43 11 46 -3 3 -12 -16 -20 -43z"/>
<path d="M4581 571 c30 -27 56 -47 59 -44 7 7 -89 93 -103 93 -6 0 14 -22 44
-49z"/>
<path d="M3080 555 c0 -2 25 -43 55 -90 30 -46 55 -89 55 -93 0 -11 34 -42 45
-42 5 0 -1 10 -12 23 -11 12 -26 33 -33 47 -16 31 -101 160 -106 160 -2 0 -4
-2 -4 -5z"/>
<path d="M4320 553 c0 -5 14 -17 30 -26 17 -10 30 -16 30 -13 0 2 -13 14 -30
26 -16 12 -30 18 -30 13z"/>
<path d="M4640 509 c0 -3 11 -33 25 -67 30 -75 34 -138 8 -127 -10 4 -34 9
-53 11 -35 4 -35 4 8 -12 57 -21 72 -14 72 35 0 46 -25 129 -46 151 -8 8 -14
12 -14 9z"/>
<path d="M6117 486 c-4 -9 -2 -26 3 -38 5 -13 9 -17 9 -10 1 7 6 10 11 7 17
-11 11 -49 -15 -87 -14 -20 -25 -42 -25 -47 0 -6 -18 -34 -40 -63 -22 -29 -39
-57 -38 -63 3 -14 -28 -70 -39 -69 -9 1 -73 -95 -73 -110 0 -13 7 -5 45 54 18
28 35 46 37 40 2 -8 92 128 107 164 7 16 46 51 54 48 5 -1 6 2 2 8 -3 5 -2 17
3 26 6 11 12 -43 17 -162 10 -229 24 -198 19 41 -4 183 -8 215 -25 215 -5 0
-18 14 -28 31 -14 23 -20 27 -24 15z"/>
<path d="M6048 455 c-3 -14 -1 -25 3 -25 5 0 9 11 9 25 0 14 -2 25 -4 25 -2 0
-6 -11 -8 -25z"/>
<path d="M6066 429 c-6 -33 -140 -268 -159 -280 -5 -4 -6 -13 -2 -20 6 -9 3
-10 -11 -5 -10 4 -15 4 -12 1 4 -4 1 -23 -6 -43 -7 -21 -11 -43 -8 -51 3 -8 0
-11 -7 -7 -6 4 -11 1 -11 -8 0 -9 6 -16 14 -16 12 0 56 100 56 127 0 5 12 25
26 44 14 19 35 52 45 74 23 46 83 135 99 145 7 4 6 16 -3 39 l-14 33 -7 -33z"/>
<path d="M3968 343 c24 -29 57 -61 73 -70 16 -10 29 -20 29 -24 0 -4 36 -39
80 -79 44 -40 80 -68 80 -63 0 4 -10 18 -22 29 -13 12 -52 48 -88 81 -36 34
-87 81 -113 106 -75 71 -85 76 -39 20z"/>
<path d="M4173 353 c16 -16 195 -58 205 -49 2 3 -32 12 -75 21 -43 10 -90 24
-105 31 -37 19 -46 18 -25 -3z"/>
<path d="M3246 347 c3 -10 9 -15 12 -12 3 3 0 11 -7 18 -10 9 -11 8 -5 -6z"/>
<path d="M4558 333 c7 -3 16 -2 19 1 4 3 -2 6 -13 5 -11 0 -14 -3 -6 -6z"/>
<path d="M2631 315 c0 -11 9 -36 20 -55 21 -38 18 -12 -7 44 -10 23 -13 26
-13 11z"/>
<path d="M4209 302 c6 -12 15 -22 20 -22 4 0 23 -30 41 -66 19 -36 36 -61 38
-55 6 19 -49 115 -81 140 -29 24 -29 24 -18 3z"/>
<path d="M3323 268 c-15 -20 -25 -38 -20 -38 3 0 12 11 21 25 17 26 16 35 -1
13z"/>
<path d="M4568 263 c6 -2 18 -2 25 0 6 3 1 5 -13 5 -14 0 -19 -2 -12 -5z"/>
<path d="M4618 253 c7 -3 16 -2 19 1 4 3 -2 6 -13 5 -11 0 -14 -3 -6 -6z"/>
<path d="M6000 165 c-7 -9 -11 -17 -9 -20 3 -2 10 5 17 15 14 24 10 26 -8 5z"/>
<path d="M4311 123 c-1 -25 27 -102 42 -118 15 -15 2 42 -22 95 -14 33 -20 39
-20 23z"/>
<path d="M4870 119 c0 -50 13 -119 23 -119 12 0 1 104 -13 129 -8 13 -9 11
-10 -10z"/>
<path d="M5580 100 c-36 -22 -62 -40 -57 -40 11 0 116 61 123 71 8 13 5 12
-66 -31z"/>
<path d="M4773 45 c0 -22 2 -30 4 -17 2 12 2 30 0 40 -3 9 -5 -1 -4 -23z"/>
<path d="M5961 44 c-13 -19 -22 -37 -19 -40 3 -3 15 12 27 32 28 47 23 53 -8
8z"/>
<path d="M5448 53 c6 -2 18 -2 25 0 6 3 1 5 -13 5 -14 0 -19 -2 -12 -5z"/>
</g>
</svg>
